<svg width="18" height="14" viewBox="0 0 18 14" fill="none" xmlns="http://www.w3.org/2000/svg">
<path fill-rule="evenodd" clip-rule="evenodd" d="M10.6465 13.5644C10.3566 13.8452 9.88658 13.8452 9.59668 13.5644L9.18668 13.1672C8.89678 12.8864 8.89678 12.431 9.18668 12.1502L14.5017 7.00117L9.1839 1.84945C8.89401 1.56861 8.89401 1.11328 9.1839 0.832438L9.59391 0.43524C9.8838 0.1544 10.3538 0.154399 10.6437 0.435241L16.8929 6.48929C16.9291 6.52431 16.9607 6.56204 16.9879 6.6018C17.1814 6.88133 17.1507 7.26334 16.8957 7.51035L10.6465 13.5644ZM2.56792 13.5648C2.27799 13.8454 1.80791 13.8454 1.51798 13.5648L1.10749 13.1674C0.81755 12.8868 0.81755 12.4318 1.10748 12.1512L6.42756 7.00173L1.10417 1.84908C0.814235 1.56844 0.814235 1.11345 1.10417 0.832811L1.51467 0.435479C1.8046 0.154845 2.27468 0.154844 2.56461 0.43548L8.81688 6.48721C8.90213 6.56973 8.96231 6.66732 8.99742 6.77112C9.08657 7.02258 9.0275 7.31239 8.82019 7.51304L2.56792 13.5648Z" fill="white"/>
</svg>
