<svg width="17" height="14" viewBox="0 0 17 14" fill="none" xmlns="http://www.w3.org/2000/svg">
<path fill-rule="evenodd" clip-rule="evenodd" d="M2.62578 13.3659C2.23525 13.7564 1.60209 13.7564 1.21156 13.3659C0.821039 12.9754 0.821039 12.3422 1.21156 11.9517L6.162 7.00126L1.20891 2.04817C0.818385 1.65765 0.818384 1.02448 1.20891 0.633957C1.59943 0.243433 2.2326 0.243433 2.62312 0.633957L8.27998 6.29081C8.3298 6.34064 8.37327 6.39441 8.41038 6.45113C8.6671 6.83934 8.62451 7.36718 8.28263 7.70906L2.62578 13.3659ZM10.6258 13.3659C10.2353 13.7564 9.60209 13.7564 9.21156 13.3659C8.82104 12.9754 8.82104 12.3422 9.21156 11.9517L14.162 7.00126L9.20891 2.04817C8.81838 1.65765 8.81838 1.02448 9.20891 0.633957C9.59943 0.243433 10.2326 0.243433 10.6231 0.633957L16.28 6.29081C16.3298 6.34064 16.3733 6.39441 16.4104 6.45113C16.6671 6.83934 16.6245 7.36718 16.2826 7.70906L10.6258 13.3659Z" fill="#28009F"/>
</svg>
