<svg width="23" height="17" viewBox="0 0 23 17" fill="none" xmlns="http://www.w3.org/2000/svg">
<path d="M9.14277 11.4314V4.57431L15.081 8.00293L9.14277 11.4314ZM22.3793 2.50131C22.1165 1.51796 21.342 0.743405 20.3586 0.48058C18.576 0.00292973 11.4285 0.00292969 11.4285 0.00292969C11.4285 0.00292969 4.28093 0.00292973 2.49838 0.48058C1.51503 0.743405 0.740475 1.51796 0.47765 2.50131C0 4.28386 0 8.00288 0 8.00288C0 8.00288 0 11.722 0.47765 13.5044C0.740475 14.4877 1.51503 15.2624 2.49838 15.5251C4.28093 16.0029 11.4285 16.0029 11.4285 16.0029C11.4285 16.0029 18.576 16.0029 20.3586 15.5251C21.342 15.2624 22.1165 14.4877 22.3793 13.5044C22.857 11.722 22.857 8.00288 22.857 8.00288C22.857 8.00288 22.857 4.28386 22.3793 2.50131Z" fill="#FEFEFE"/>
</svg>
