<svg width="16" height="16" viewBox="0 0 16 16" fill="none" xmlns="http://www.w3.org/2000/svg">
<g clip-path="url(#clip0)">
<path d="M8.01339 -0.0266113C5.83708 -0.0266113 5.56418 -0.0173872 4.70948 0.0216103C3.85654 0.0605087 3.27402 0.195986 2.7643 0.394066C2.23735 0.598855 1.79047 0.872856 1.34497 1.31834C0.899477 1.76386 0.625475 2.21075 0.420686 2.73769C0.222606 3.2474 0.087138 3.82993 0.0482126 4.68286C0.00922415 5.53757 0 5.81046 0 7.98678C0 10.1631 0.00922415 10.436 0.0482126 11.2907C0.087138 12.1436 0.222606 12.7261 0.420686 13.2358C0.625475 13.7628 0.899477 14.2097 1.34497 14.6552C1.79047 15.1007 2.23735 15.3747 2.7643 15.5795C3.27402 15.7775 3.85654 15.913 4.70948 15.9519C5.56418 15.9909 5.83708 16.0001 8.01339 16.0001C10.1897 16.0001 10.4626 15.9909 11.3173 15.9519C12.1702 15.913 12.7527 15.7775 13.2624 15.5795C13.7894 15.3747 14.2363 15.1007 14.6818 14.6552C15.1273 14.2097 15.4013 13.7628 15.6061 13.2358C15.8042 12.7261 15.9396 12.1436 15.9785 11.2907C16.0175 10.436 16.0268 10.1631 16.0268 7.98678C16.0268 5.81046 16.0175 5.53757 15.9785 4.68286C15.9396 3.82993 15.8042 3.2474 15.6061 2.73769C15.4013 2.21075 15.1273 1.76386 14.6818 1.31834C14.2363 0.872856 13.7894 0.598855 13.2624 0.394066C12.7527 0.195986 12.1702 0.0605087 11.3173 0.0216103C10.4626 -0.0173872 10.1897 -0.0266113 8.01339 -0.0266113ZM8.01339 1.41723C10.153 1.41723 10.4065 1.42541 11.2515 1.46397C12.0328 1.49959 12.4571 1.63014 12.7394 1.73988C13.1135 1.88524 13.3804 2.05889 13.6608 2.33929C13.9412 2.61972 14.1149 2.88666 14.2603 3.2607C14.37 3.54307 14.5005 3.96737 14.5362 4.74867C14.5747 5.59365 14.5829 5.84711 14.5829 7.98678C14.5829 10.1264 14.5747 10.3799 14.5362 11.2249C14.5005 12.0062 14.37 12.4305 14.2603 12.7128C14.1149 13.0869 13.9412 13.3538 13.6608 13.6342C13.3804 13.9146 13.1135 14.0883 12.7394 14.2336C12.4571 14.3434 12.0328 14.4739 11.2515 14.5096C10.4066 14.5481 10.1532 14.5563 8.01339 14.5563C5.87356 14.5563 5.62017 14.5481 4.77529 14.5096C3.99399 14.4739 3.56968 14.3434 3.28731 14.2336C2.91327 14.0883 2.64633 13.9146 2.36593 13.6342C2.08552 13.3538 1.91185 13.0869 1.76649 12.7128C1.65675 12.4305 1.52622 12.0062 1.49057 11.2249C1.45201 10.3799 1.44385 10.1264 1.44385 7.98678C1.44385 5.84711 1.45201 5.59365 1.49057 4.74867C1.52622 3.96737 1.65675 3.54307 1.76649 3.2607C1.91185 2.88666 2.08551 2.61972 2.36592 2.33932C2.64633 2.05889 2.91327 1.88524 3.28731 1.73988C3.56968 1.63014 3.99399 1.49959 4.77529 1.46397C5.62026 1.42541 5.87372 1.41723 8.01339 1.41723Z" fill="white"/>
<path d="M8.01343 10.6579C6.53819 10.6579 5.34229 9.46203 5.34229 7.98682C5.34229 6.51157 6.53819 5.31568 8.01343 5.31568C9.48864 5.31568 10.6845 6.51157 10.6845 7.98682C10.6845 9.46203 9.48864 10.6579 8.01343 10.6579ZM8.01343 3.87183C5.74076 3.87183 3.89844 5.71415 3.89844 7.98682C3.89844 10.2595 5.74076 12.1018 8.01343 12.1018C10.2861 12.1018 12.1284 10.2595 12.1284 7.98682C12.1284 5.71415 10.2861 3.87183 8.01343 3.87183Z" fill="white"/>
<path d="M13.2525 3.70918C13.2525 4.24027 12.822 4.67076 12.2909 4.67076C11.7599 4.67076 11.3293 4.24027 11.3293 3.70918C11.3293 3.17809 11.7599 2.74756 12.2909 2.74756C12.822 2.74756 13.2525 3.17809 13.2525 3.70918Z" fill="white"/>
</g>
<defs>
<clipPath id="clip0">
<rect width="16" height="16" fill="white"/>
</clipPath>
</defs>
</svg>
