<svg width="16" height="16" viewBox="0 0 16 16" fill="none" xmlns="http://www.w3.org/2000/svg">
<path fill-rule="evenodd" clip-rule="evenodd" d="M10.455 0.00292969H5.54496C1.06383 0.00292969 0.00280762 1.06395 0.00280762 5.54509V10.4551C0.00280762 14.9363 1.06383 15.9973 5.54496 15.9973H10.455C14.9361 15.9973 15.9972 14.9363 15.9972 10.4551V5.54509C15.9972 1.06395 14.9249 0.00292969 10.455 0.00292969ZM12.9157 11.4146H11.7531C11.3129 11.4146 11.1774 11.0647 10.3873 10.2633C9.69875 9.59729 9.39399 9.507 9.22468 9.507C8.98764 9.507 8.91991 9.57472 8.91991 9.90206V10.9518C8.91991 11.234 8.82962 11.4033 8.08464 11.4033C6.85431 11.4033 5.48852 10.6583 4.52909 9.26996C3.08429 7.23821 2.68923 5.7144 2.68923 5.39835C2.68923 5.22904 2.75695 5.07101 3.08429 5.07101H4.2469C4.54037 5.07101 4.65325 5.20646 4.76612 5.52251C5.34178 7.18177 6.30122 8.63786 6.69628 8.63786C6.84302 8.63786 6.91074 8.57013 6.91074 8.19765V6.48195C6.86559 5.69182 6.44796 5.6241 6.44796 5.34191C6.44796 5.20646 6.56083 5.07101 6.74143 5.07101H8.57C8.81833 5.07101 8.90863 5.20646 8.90863 5.49994V7.81387C8.90863 8.0622 9.0215 8.1525 9.08923 8.1525C9.23596 8.1525 9.36013 8.06219 9.63103 7.7913C10.4663 6.85443 11.0645 5.40964 11.0645 5.40964C11.1435 5.24032 11.279 5.0823 11.5725 5.0823H12.7351C13.085 5.0823 13.164 5.2629 13.085 5.51122C12.9383 6.18847 11.516 8.19765 11.516 8.19765C11.3919 8.40082 11.3467 8.49112 11.516 8.71687C11.6402 8.88618 12.0465 9.23609 12.3174 9.55214C12.8141 10.1165 13.1979 10.5906 13.2995 10.9179C13.4123 11.2453 13.243 11.4146 12.9157 11.4146Z" fill="white"/>
</svg>
