<svg width="22" height="21" viewBox="0 0 22 21" fill="none" xmlns="http://www.w3.org/2000/svg">
<path fill-rule="evenodd" clip-rule="evenodd" d="M20.7511 20.1922C21.1416 19.8017 21.1416 19.1685 20.7511 18.778L12.2658 10.2927L20.7511 1.80745C21.1416 1.41693 21.1416 0.783763 20.7511 0.393238C20.3605 0.00271405 19.7274 0.00271371 19.3368 0.393238L10.8516 8.87852L2.36629 0.393235C1.97577 0.00271077 1.3426 0.00271069 0.952076 0.393235C0.561552 0.783759 0.561551 1.41692 0.952076 1.80745L9.43736 10.2927L0.952073 18.778C0.561549 19.1685 0.561549 19.8017 0.952073 20.1922C1.3426 20.5828 1.97576 20.5828 2.36629 20.1922L10.8516 11.7069L19.3368 20.1922C19.7274 20.5828 20.3605 20.5828 20.7511 20.1922Z" fill="white"/>
</svg>
