<svg width="17" height="18" viewBox="0 0 17 18" fill="none" xmlns="http://www.w3.org/2000/svg">
<path d="M16.2912 14.5452C15.8883 13.591 15.3037 12.7242 14.5698 11.9931C13.8382 11.2599 12.9715 10.6754 12.0177 10.2717C12.0091 10.2675 12.0006 10.2653 11.9921 10.2611C13.3226 9.30002 14.1875 7.73456 14.1875 5.96836C14.1875 3.04248 11.8169 0.671875 8.89104 0.671875C5.96517 0.671875 3.59456 3.04248 3.59456 5.96836C3.59456 7.73456 4.45951 9.30002 5.79004 10.2632C5.7815 10.2675 5.77295 10.2696 5.76441 10.2739C4.80763 10.6775 3.94908 11.2563 3.21228 11.9952C2.47912 12.7269 1.89457 13.5935 1.49092 14.5474C1.09437 15.4812 0.880503 16.4824 0.860893 17.4967C0.860323 17.5195 0.864321 17.5422 0.872652 17.5634C0.880983 17.5847 0.893477 17.604 0.9094 17.6203C0.925322 17.6367 0.94435 17.6496 0.965362 17.6585C0.986375 17.6673 1.00895 17.6719 1.03175 17.6719H2.31315C2.40712 17.6719 2.48187 17.5971 2.48401 17.5053C2.52672 15.8565 3.18878 14.3125 4.35913 13.1421C5.57006 11.9312 7.17823 11.2648 8.89104 11.2648C10.6039 11.2648 12.212 11.9312 13.423 13.1421C14.5933 14.3125 15.2554 15.8565 15.2981 17.5053C15.3002 17.5993 15.375 17.6719 15.4689 17.6719H16.7503C16.7731 17.6719 16.7957 17.6673 16.8167 17.6585C16.8377 17.6496 16.8568 17.6367 16.8727 17.6203C16.8886 17.604 16.9011 17.5847 16.9094 17.5634C16.9178 17.5422 16.9218 17.5195 16.9212 17.4967C16.8998 16.4759 16.6884 15.4828 16.2912 14.5452ZM8.89104 9.64172C7.91077 9.64172 6.98815 9.25944 6.29406 8.56534C5.59996 7.87125 5.21768 6.94863 5.21768 5.96836C5.21768 4.98808 5.59996 4.06547 6.29406 3.37137C6.98815 2.67728 7.91077 2.29499 8.89104 2.29499C9.87132 2.29499 10.7939 2.67728 11.488 3.37137C12.1821 4.06547 12.5644 4.98808 12.5644 5.96836C12.5644 6.94863 12.1821 7.87125 11.488 8.56534C10.7939 9.25944 9.87132 9.64172 8.89104 9.64172Z" fill="white"/>
</svg>
