<svg width="11" height="19" viewBox="0 0 11 19" fill="none" xmlns="http://www.w3.org/2000/svg">
<g clip-path="url(#clip0)">
<path d="M8.4375 0.217529H1.6875C1.38281 0.217529 1.10156 0.293701 0.84375 0.446045C0.585938 0.598389 0.380859 0.803467 0.228516 1.06128C0.0761719 1.31909 0 1.60034 0 1.90503V16.53C0 16.9988 0.164063 17.3972 0.492188 17.7253C0.820312 18.0535 1.21875 18.2175 1.6875 18.2175H8.4375C8.90625 18.2175 9.30469 18.0535 9.63281 17.7253C9.96094 17.3972 10.125 16.9988 10.125 16.53V1.90503C10.125 1.60034 10.0488 1.31909 9.89648 1.06128C9.74414 0.803467 9.53906 0.598389 9.28125 0.446045C9.02344 0.293701 8.74219 0.217529 8.4375 0.217529ZM9 16.53C9 16.6824 8.94434 16.8142 8.83301 16.9255C8.72168 17.0369 8.58984 17.0925 8.4375 17.0925H1.6875C1.53516 17.0925 1.40332 17.0369 1.29199 16.9255C1.18066 16.8142 1.125 16.6824 1.125 16.53V1.90503C1.125 1.75269 1.18066 1.62085 1.29199 1.50952C1.40332 1.39819 1.53516 1.34253 1.6875 1.34253H8.4375C8.58984 1.34253 8.72168 1.39819 8.83301 1.50952C8.94434 1.62085 9 1.75269 9 1.90503V16.53ZM5.07129 14.28C4.76074 14.28 4.49414 14.3914 4.27148 14.614C4.04883 14.8367 3.9375 15.1003 3.9375 15.405C3.9375 15.6042 3.9873 15.7917 4.08691 15.9675C4.18652 16.1433 4.32422 16.281 4.5 16.3806C4.67578 16.4802 4.86328 16.53 5.0625 16.53C5.26172 16.53 5.44922 16.4802 5.625 16.3806C5.80078 16.281 5.93848 16.1433 6.03809 15.9675C6.1377 15.7917 6.1875 15.6042 6.1875 15.405C6.1875 15.1003 6.0791 14.8367 5.8623 14.614C5.64551 14.3914 5.38184 14.28 5.07129 14.28ZM6.1875 1.90503H3.9375C3.78516 1.90503 3.65332 1.96069 3.54199 2.07202C3.43066 2.18335 3.375 2.31519 3.375 2.46753C3.375 2.61987 3.43066 2.75171 3.54199 2.86304C3.65332 2.97437 3.78516 3.03003 3.9375 3.03003H6.1875C6.33984 3.03003 6.47168 2.97437 6.58301 2.86304C6.69434 2.75171 6.75 2.61987 6.75 2.46753C6.75 2.31519 6.69434 2.18335 6.58301 2.07202C6.47168 1.96069 6.33984 1.90503 6.1875 1.90503Z" fill="#28009F"/>
</g>
<defs>
<clipPath id="clip0">
<rect width="10.125" height="18" fill="white" transform="translate(0 0.217529)"/>
</clipPath>
</defs>
</svg>
