<svg width="18" height="18" viewBox="0 0 18 18" fill="none" xmlns="http://www.w3.org/2000/svg">
<path fill-rule="evenodd" clip-rule="evenodd" d="M13.3004 7.94685C13.3004 10.8344 10.9596 13.1752 8.0721 13.1752C5.18456 13.1752 2.84375 10.8344 2.84375 7.94685C2.84375 5.05932 5.18456 2.71851 8.0721 2.71851C10.9596 2.71851 13.3004 5.05932 13.3004 7.94685ZM13.8415 12.3021C14.7573 11.0909 15.3004 9.58231 15.3004 7.94685C15.3004 3.95475 12.0642 0.718506 8.0721 0.718506C4.07999 0.718506 0.84375 3.95475 0.84375 7.94685C0.84375 11.939 4.07999 15.1752 8.0721 15.1752C9.70754 15.1752 11.2161 14.6321 12.4273 13.7163L16.1996 17.4886C16.5901 17.8791 17.2233 17.8791 17.6138 17.4886C18.0043 17.0981 18.0043 16.4649 17.6138 16.0744L13.8415 12.3021Z" fill="white"/>
</svg>
