<svg width="13" height="20" viewBox="0 0 13 20" fill="none" xmlns="http://www.w3.org/2000/svg">
<path d="M6.60881 19.2175L6.21552 18.7675C5.96971 18.5175 0.217773 11.6175 0.217773 7.46753C0.217773 3.86753 3.06916 0.967529 6.60881 0.967529C10.1485 0.967529 12.9999 3.86753 12.9999 7.46753C12.9999 11.6175 7.24792 18.5175 7.00211 18.8175L6.60881 19.2175ZM6.60881 1.96753C3.60994 1.96753 1.20101 4.41753 1.20101 7.46753C1.20101 10.6675 5.3306 16.0675 6.60881 17.6675C7.88702 16.0675 12.0166 10.6675 12.0166 7.46753C12.0166 4.41753 9.60768 1.96753 6.60881 1.96753Z" fill="#28009F"/>
<path d="M6.60879 9.96753C5.23226 9.96753 4.1507 8.86753 4.1507 7.46753C4.1507 6.06753 5.23226 4.96753 6.60879 4.96753C7.98532 4.96753 9.06688 6.06753 9.06688 7.46753C9.06688 8.86753 7.98532 9.96753 6.60879 9.96753ZM6.60879 5.96753C5.77304 5.96753 5.13393 6.61753 5.13393 7.46753C5.13393 8.31753 5.77304 8.96753 6.60879 8.96753C7.44454 8.96753 8.08364 8.31753 8.08364 7.46753C8.08364 6.61753 7.44454 5.96753 6.60879 5.96753Z" fill="#28009F"/>
</svg>
