<svg width="11" height="11" viewBox="0 0 11 11" fill="none" xmlns="http://www.w3.org/2000/svg">
<path d="M5.26875 9.50315C4.95638 9.81552 4.95638 10.322 5.26875 10.6344C5.58112 10.9467 6.08758 10.9467 6.39995 10.6344L10.4928 6.54146C10.8834 6.15093 10.8834 5.51777 10.4928 5.12724L6.39995 1.03435C6.08758 0.721978 5.58112 0.721978 5.26875 1.03435C4.95638 1.34672 4.95638 1.85318 5.26875 2.16555L7.79613 4.69293C7.92212 4.81892 7.83289 5.03435 7.65471 5.03435H1.26875C0.826923 5.03435 0.46875 5.39252 0.46875 5.83435C0.46875 6.27618 0.826922 6.63435 1.26875 6.63435H7.65471C7.83289 6.63435 7.92212 6.84978 7.79613 6.97577L5.26875 9.50315Z" fill="white"/>
</svg>
