<svg width="24" height="24" viewBox="0 0 24 24" fill="none" xmlns="http://www.w3.org/2000/svg">
<path d="M8 3.75H16C16.2518 3.75 16.4697 3.80218 16.6654 3.89972C16.8688 4.00115 17.012 4.12709 17.1148 4.27399C17.2102 4.41014 17.25 4.54208 17.25 4.6875V19.3125C17.25 19.5397 17.1694 19.7352 16.933 19.9346C16.6922 20.1378 16.396 20.25 16 20.25H8C7.60401 20.25 7.3078 20.1378 7.06699 19.9346C6.83061 19.7352 6.75 19.5397 6.75 19.3125V4.6875C6.75 4.54208 6.7898 4.41014 6.88516 4.27399C6.98804 4.12709 7.13121 4.00114 7.33465 3.89972C7.53028 3.80218 7.74816 3.75 8 3.75Z" stroke="#28009F" stroke-width="1.5"/>
<path d="M13.3333 5.5H10.6667C10.4861 5.5 10.3299 5.55566 10.1979 5.66699C10.066 5.77832 10 5.91016 10 6.0625C10 6.21484 10.066 6.34668 10.1979 6.45801C10.3299 6.56934 10.4861 6.625 10.6667 6.625H13.3333C13.5139 6.625 13.6701 6.56934 13.8021 6.45801C13.934 6.34668 14 6.21484 14 6.0625C14 5.91016 13.934 5.77832 13.8021 5.66699C13.6701 5.55566 13.5139 5.5 13.3333 5.5Z" fill="#28009F"/>
<path d="M12.0085 16.3C11.7018 16.3 11.4384 16.4114 11.2185 16.634C10.9986 16.8567 10.8887 17.1204 10.8887 17.425C10.8887 17.6243 10.9379 17.8118 11.0362 17.9875C11.1346 18.1633 11.2706 18.301 11.4442 18.4006C11.6178 18.5002 11.803 18.55 11.9998 18.55C12.1965 18.55 12.3817 18.5002 12.5553 18.4006C12.7289 18.301 12.8649 18.1633 12.9633 17.9875C13.0617 17.8118 13.1109 17.6243 13.1109 17.425C13.1109 17.1204 13.0038 16.8567 12.7897 16.634C12.5756 16.4114 12.3152 16.3 12.0085 16.3Z" fill="#28009F"/>
</svg>
