<svg width="24" height="24" viewBox="0 0 24 24" fill="none" xmlns="http://www.w3.org/2000/svg">
<path fill-rule="evenodd" clip-rule="evenodd" d="M18.9707 9.15503C18.9707 12.5674 15.0155 17.839 13.4705 19.772C13.1729 20.1443 12.9648 20.3927 12.8915 20.4802L12.8707 20.505L12.4707 20.905L12.0707 20.455C12.0271 20.4114 11.8127 20.165 11.4885 19.7659C9.95617 17.8793 5.9707 12.5804 5.9707 9.15503C5.9707 5.55503 8.8707 2.65503 12.4707 2.65503C16.0707 2.65503 18.9707 5.55503 18.9707 9.15503ZM14.7595 15.4521C13.9203 16.7338 13.0694 17.8599 12.4806 18.6064C12.3926 18.4965 12.2969 18.3755 12.1941 18.244C11.6288 17.5206 10.8996 16.539 10.1808 15.4442C9.4591 14.345 8.7659 13.159 8.25785 12.0236C7.73809 10.8621 7.4707 9.88082 7.4707 9.15503C7.4707 6.38346 9.69913 4.15503 12.4707 4.15503C15.2423 4.15503 17.4707 6.38346 17.4707 9.15503C17.4707 9.88083 17.2033 10.8621 16.6834 12.0247C16.1752 13.1612 15.4818 14.3491 14.7595 15.4521ZM9.9707 9.15503C9.9707 10.555 11.0707 11.655 12.4707 11.655C13.8707 11.655 14.9707 10.555 14.9707 9.15503C14.9707 7.75503 13.8707 6.65503 12.4707 6.65503C11.0707 6.65503 9.9707 7.75503 9.9707 9.15503ZM10.9707 9.15503C10.9707 8.30503 11.6207 7.65503 12.4707 7.65503C13.3207 7.65503 13.9707 8.30503 13.9707 9.15503C13.9707 10.005 13.3207 10.655 12.4707 10.655C11.6207 10.655 10.9707 10.005 10.9707 9.15503Z" fill="#28009F"/>
</svg>
