<svg width="24" height="24" viewBox="0 0 24 24" fill="none" xmlns="http://www.w3.org/2000/svg">
<path d="M18.6172 16.833H20.4893C19.9033 18.0225 19.0039 18.9541 17.791 19.6279C16.4023 20.4014 14.709 20.7881 12.7109 20.7881C10.7773 20.7881 9.10742 20.46 7.70117 19.8037C6.29492 19.1533 5.24902 18.1924 4.56348 16.9209C3.87793 15.6436 3.53516 14.2549 3.53516 12.7549C3.53516 11.1084 3.9248 9.57617 4.7041 8.1582C5.4834 6.73438 6.5498 5.66797 7.90332 4.95898C9.25684 4.24414 10.8037 3.88672 12.5439 3.88672C14.0205 3.88672 15.333 4.17383 16.4814 4.74805C17.6299 5.32227 18.5059 6.13965 19.1094 7.2002C19.7188 8.25488 20.0234 9.40918 20.0234 10.6631C20.0234 12.1572 19.5635 13.5078 18.6436 14.7148C17.4893 16.2383 16.0098 17 14.2051 17C13.7188 17 13.3525 16.915 13.1064 16.7451C12.8604 16.5752 12.6963 16.3262 12.6143 15.998C11.9229 16.666 11.126 17 10.2236 17C9.25098 17 8.44238 16.666 7.79785 15.998C7.15918 15.3242 6.83984 14.4307 6.83984 13.3174C6.83984 11.9404 7.22656 10.6836 8 9.54688C8.9375 8.16406 10.1387 7.47266 11.6035 7.47266C12.6465 7.47266 13.417 7.87109 13.915 8.66797L14.1348 7.69238H16.4551L15.1279 13.9941C15.0459 14.3926 15.0049 14.6504 15.0049 14.7676C15.0049 14.9141 15.0371 15.0254 15.1016 15.1016C15.1719 15.1719 15.2539 15.207 15.3477 15.207C15.6289 15.207 15.9922 15.0371 16.4375 14.6973C17.0352 14.252 17.5186 13.6543 17.8877 12.9043C18.2568 12.1543 18.4414 11.3779 18.4414 10.5752C18.4414 9.13379 17.9199 7.92969 16.877 6.96289C15.834 5.99023 14.3779 5.50391 12.5088 5.50391C10.9209 5.50391 9.57324 5.8291 8.46582 6.47949C7.36426 7.12402 6.53223 8.03516 5.96973 9.21289C5.41309 10.3848 5.13477 11.6064 5.13477 12.8779C5.13477 14.1143 5.44531 15.2393 6.06641 16.2529C6.69336 17.2666 7.56934 18.0049 8.69434 18.4678C9.8252 18.9365 11.1172 19.1709 12.5703 19.1709C13.9707 19.1709 15.1748 18.9746 16.1826 18.582C17.1904 18.1953 18.002 17.6123 18.6172 16.833ZM9.11621 13.2207C9.11621 13.9648 9.26562 14.5127 9.56445 14.8643C9.86914 15.2158 10.2441 15.3916 10.6895 15.3916C11.0234 15.3916 11.3369 15.3096 11.6299 15.1455C11.8525 15.0283 12.0723 14.8438 12.2891 14.5918C12.5996 14.2344 12.8662 13.7129 13.0889 13.0273C13.3174 12.3418 13.4316 11.7031 13.4316 11.1113C13.4316 10.4492 13.2764 9.94238 12.9658 9.59082C12.6611 9.2334 12.2744 9.05469 11.8057 9.05469C11.3018 9.05469 10.8359 9.25098 10.4082 9.64355C9.98047 10.0303 9.6582 10.584 9.44141 11.3047C9.22461 12.0254 9.11621 12.6641 9.11621 13.2207Z" fill="#28009F"/>
</svg>
