<svg width="12" height="12" viewBox="0 0 12 12" fill="none" xmlns="http://www.w3.org/2000/svg">
<path fill-rule="evenodd" clip-rule="evenodd" d="M11.8457 0.356398C11.4552 -0.0341195 10.816 -0.0400724 10.4255 0.350445L6.14116 4.63463L1.85683 0.350455C1.4663 -0.0400619 0.827173 -0.0341087 0.436642 0.356408C0.0461103 0.746926 0.0401571 1.38603 0.430688 1.77655L4.71501 6.06072L0.430564 10.345C0.0400324 10.7355 0.0459859 11.3746 0.436517 11.7652C0.827049 12.1557 1.46618 12.1616 1.85671 11.7711L6.14116 7.48681L10.4256 11.7711C10.8161 12.1616 11.4553 12.1557 11.8458 11.7652C12.2363 11.3746 12.2423 10.7355 11.8518 10.345L7.5673 6.06072L11.8516 1.77654C12.2422 1.38602 12.2362 0.746915 11.8457 0.356398Z" fill="#FF0000"/>
</svg>
