<svg width="16" height="14" viewBox="0 0 16 14" fill="none" xmlns="http://www.w3.org/2000/svg">
<path fill-rule="evenodd" clip-rule="evenodd" d="M1.93535 13.3655C1.54482 13.7561 0.911658 13.7561 0.521133 13.3655C0.130609 12.975 0.130609 12.3419 0.521133 11.9513L5.47157 7.0009L0.518479 2.0478C0.127955 1.65728 0.127955 1.02412 0.518479 0.633591C0.909003 0.243067 1.54217 0.243067 1.93269 0.633591L7.58955 6.29045C7.63937 6.34027 7.68284 6.39405 7.71995 6.45076C7.97667 6.83897 7.93408 7.36681 7.5922 7.70869L1.93535 13.3655ZM9.93535 13.3655C9.54482 13.7561 8.91166 13.7561 8.52113 13.3655C8.13061 12.975 8.13061 12.3419 8.52113 11.9513L13.4716 7.0009L8.51848 2.0478C8.12795 1.65728 8.12795 1.02412 8.51848 0.633591C8.909 0.243067 9.54217 0.243067 9.93269 0.633591L15.5895 6.29045C15.6394 6.34027 15.6828 6.39405 15.72 6.45076C15.9767 6.83897 15.9341 7.36681 15.5922 7.70869L9.93535 13.3655Z" fill="white"/>
</svg>
