<svg width="18" height="18" viewBox="0 0 18 18" fill="none" xmlns="http://www.w3.org/2000/svg">
<path fill-rule="evenodd" clip-rule="evenodd" d="M13.3937 7.69685C13.3937 10.5844 11.0529 12.9252 8.16536 12.9252C5.27782 12.9252 2.93701 10.5844 2.93701 7.69685C2.93701 4.80932 5.27782 2.46851 8.16536 2.46851C11.0529 2.46851 13.3937 4.80932 13.3937 7.69685ZM13.9348 12.0521C14.8506 10.8409 15.3937 9.33231 15.3937 7.69685C15.3937 3.70475 12.1575 0.468506 8.16536 0.468506C4.17325 0.468506 0.937012 3.70475 0.937012 7.69685C0.937012 11.689 4.17325 14.9252 8.16536 14.9252C9.8008 14.9252 11.3094 14.3821 12.5206 13.4663L16.2929 17.2386C16.6834 17.6291 17.3166 17.6291 17.7071 17.2386C18.0976 16.8481 18.0976 16.2149 17.7071 15.8244L13.9348 12.0521Z" fill="#C4C4C4"/>
</svg>
