<svg width="24" height="24" viewBox="0 0 24 24" fill="none" xmlns="http://www.w3.org/2000/svg">
<path d="M21.4267 11.095L4.42674 3.095C4.25557 3.01401 4.06492 2.98334 3.87699 3.00656C3.68906 3.02978 3.5116 3.10594 3.36529 3.22615C3.21898 3.34636 3.10986 3.50568 3.05062 3.68553C2.99139 3.86539 2.9845 4.05837 3.03074 4.242L4.96974 12L3.03074 19.758C2.98406 19.9417 2.99066 20.1349 3.04975 20.315C3.10885 20.495 3.218 20.6546 3.36444 20.7749C3.51088 20.8952 3.68855 20.9713 3.87667 20.9944C4.0648 21.0174 4.25559 20.9864 4.42674 20.905L21.4267 12.905C21.5985 12.8242 21.7438 12.6963 21.8455 12.536C21.9473 12.3757 22.0013 12.1898 22.0013 12C22.0013 11.8102 21.9473 11.6243 21.8455 11.464C21.7438 11.3037 21.5985 11.1758 21.4267 11.095ZM5.48174 18.197L6.32074 14.84L12.0007 12L6.32074 9.16L5.48174 5.803L18.6517 12L5.48174 18.197Z" fill="#5BC815"/>
</svg>
