<svg width="40" height="42" viewBox="0 0 40 42" fill="none" xmlns="http://www.w3.org/2000/svg">
<path fill-rule="evenodd" clip-rule="evenodd" d="M20.4534 0.328613C30.3745 0.328613 38.7722 8.13292 38.7722 18.1688C38.7722 21.4611 37.8681 24.5131 36.3034 27.1283C36.4231 27.4025 36.4863 27.6773 36.5126 27.9803C36.565 28.7889 36.3466 29.6012 36.112 30.366C36.0846 30.4551 36.0571 30.5444 36.0303 30.6333L36.244 30.4656L36.7498 30.2399C36.9223 30.2004 37.0839 30.1711 37.2612 30.1561C37.6694 30.1429 38.0017 30.2172 38.3739 30.385L38.606 30.5062L38.9297 30.7485C39.0639 30.8854 39.1804 31.0197 39.2915 31.1759C39.4625 31.4376 39.5778 31.6945 39.6593 31.9964C39.7343 32.3191 39.7548 32.6239 39.7336 32.954C39.6984 33.344 39.6101 33.7034 39.4721 34.0678C39.1584 34.8743 38.6058 35.5091 37.8773 35.9628L37.7185 36.0541C37.4848 36.1786 37.2557 36.2716 37.0037 36.3502C36.6244 36.4596 36.2569 36.5165 35.8626 36.5167C35.0911 36.4983 34.3403 36.2519 33.7507 35.741C33.4818 36.0352 33.198 36.2539 32.8446 36.4353C32.5021 36.5851 32.121 36.6986 31.7449 36.6746C31.6112 36.9815 31.4344 37.2454 31.222 37.502L30.9605 37.7636C30.8109 37.8865 30.6658 37.9895 30.501 38.0906C30.3184 38.1856 30.1465 38.2589 29.9527 38.3269C29.7954 38.3619 29.6469 38.3872 29.4869 38.4036C29.3334 38.4092 29.193 38.4051 29.0407 38.3897C28.8887 38.3632 28.7541 38.3286 28.6081 38.2794C28.4643 38.2181 28.3397 38.153 28.2072 38.0709C27.9925 37.9153 27.8038 37.7518 27.6555 37.53C27.5613 37.3777 27.4784 37.2243 27.4179 37.0557C26.9236 37.2375 26.3815 37.2396 25.9049 37.0035C25.4399 37.2535 24.8409 37.3441 24.3383 37.1608C24.1648 37.3059 23.9847 37.4238 23.7851 37.5286C23.5013 37.6583 23.2444 37.7243 22.9342 37.7533L22.6309 37.7589L22.3061 37.7014L21.9862 37.5877L21.683 37.4136L21.618 37.3576C21.128 37.6901 20.5329 37.9008 19.9381 37.8895C19.8198 38.3448 19.7213 38.8056 19.6129 39.2637C19.5439 39.5505 19.4565 39.8249 19.3388 40.0959C19.212 40.3683 19.0646 40.6034 18.8836 40.8427L18.5821 41.1442L18.3938 41.2803C18.0395 41.5098 17.7104 41.6274 17.2903 41.6641L17.0405 41.6714L16.5828 41.5866C16.4073 41.516 16.249 41.443 16.0876 41.3451C15.7222 41.0989 15.4384 40.763 15.2826 40.3474C15.191 40.0845 15.1457 39.8371 15.1354 39.5595C15.1273 38.9941 15.3574 38.4436 15.6269 37.9583C15.7288 37.7811 15.8372 37.6089 15.9489 37.4381C15.6718 37.5651 15.4008 37.6224 15.0986 37.6444C14.6696 37.6559 14.2138 37.5127 13.8772 37.2432C13.6321 37.3525 13.3934 37.4388 13.1303 37.4922C12.7213 37.5565 12.3281 37.5097 11.9636 37.3065C11.5967 37.3561 11.2505 37.3544 10.8848 37.2986C10.4194 37.2112 10.0305 37.0533 9.65046 36.7676L9.4734 36.6124L9.31346 36.4408C8.51559 36.7289 7.60437 36.8437 6.79184 36.5477C6.40559 36.3891 6.07986 36.1853 5.78965 35.8799C5.68834 35.9308 5.58797 35.981 5.48441 36.0278C5.05662 36.2122 4.6309 36.3295 4.16703 36.3771C3.85183 36.403 3.55636 36.3942 3.24228 36.3513C2.83273 36.2872 2.45851 36.1761 2.08297 35.9979C1.54335 35.7248 1.08888 35.3514 0.738723 34.854C0.657714 34.7362 0.583095 34.6152 0.513176 34.4898C0.298718 34.0953 0.170706 33.6511 0.0900731 33.2102C-0.0149942 32.5867 -0.0255043 31.9655 0.0447912 31.3372C0.0793751 31.0585 0.126548 30.7844 0.186694 30.5096C0.482161 29.2276 1.12157 28.0232 1.92039 26.9871C2.06906 26.7999 2.22207 26.6189 2.38202 26.4411C2.77052 26.0205 3.19531 25.638 3.64885 25.2929C2.67768 23.123 2.13485 20.7183 2.13485 18.1688C2.13485 8.13292 10.5324 0.328613 20.4534 0.328613Z" fill="#FEFEFE"/>
<path fill-rule="evenodd" clip-rule="evenodd" d="M23.2604 18.2782C25.3176 19.275 26.9847 18.8468 27.6973 17.8394C27.9523 18.1837 28.6418 18.5669 29.2763 18.7931L29.5199 18.8729C29.8612 18.9742 30.1805 19.0246 30.4551 19.0081C30.685 18.9938 30.9089 18.9957 31.1476 18.7303C31.3861 18.4647 31.497 17.8082 31.0141 17.2836C30.928 17.0627 30.4176 17.0774 30.5972 17.3557C30.8299 17.7241 30.8585 17.908 30.6027 18.0794C30.3469 18.2512 29.5011 17.9606 29.2872 17.6093C29.2881 17.6086 29.2891 17.6074 29.29 17.6067C29.5349 17.3614 29.4289 16.9116 29.0545 16.6054C28.744 16.3517 28.3431 16.2746 28.076 16.3961C27.1674 14.6755 25.7993 12.62 21.6819 11.6887C23.2591 10.4893 22.9333 6.81914 20.5925 6.60111C19.3216 6.4827 18.2572 7.67039 18.2237 9.24433C18.2029 10.1995 18.566 11.0833 19.1389 11.6571C16.0228 12.1212 14.0421 14.0323 12.3574 15.9316C12.286 15.8833 12.2058 15.8429 12.1189 15.814C11.7259 15.6846 11.3389 15.8356 11.2586 16.1506C11.2344 16.2438 11.2397 16.3417 11.2699 16.4361C11.2199 16.4391 11.1711 16.4382 11.1237 16.4318C10.7848 16.387 10.5551 16.1196 11.0613 15.4694C11.2684 15.2031 10.7863 15.0768 10.6752 15.3001C9.84502 16.1538 10.117 17.0593 10.8807 17.2898C11.5321 17.486 12.5369 17.243 13.4519 16.7853C13.5919 17.951 15.3484 18.4438 16.7368 17.4894C15.248 21.8409 13.9344 25.8294 13.8265 29.9886C13.8227 30.1227 13.8406 30.2548 13.8759 30.3854C13.7836 30.3414 13.6867 30.3031 13.5748 30.2649C13.3732 30.2243 13.1927 30.198 12.9875 30.1982C12.6785 30.2116 12.3999 30.2706 12.1099 30.3773C11.9389 29.9761 11.718 29.7248 11.3579 29.4847C10.7974 29.1814 10.2352 29.1207 9.61122 29.2208C9.95687 28.6809 10.167 28.1104 10.2952 27.4847L10.3446 26.8893L10.2809 26.2825L10.0777 25.685L9.91758 25.402L9.71836 25.1379L9.48191 24.8994L9.21311 24.6902L8.91822 24.515C8.50547 24.3274 8.16715 24.246 7.71549 24.2171L7.24428 24.2376C5.73593 24.4503 4.37212 25.3228 3.25491 26.3299C2.20744 27.3146 1.40601 28.56 0.918827 29.9148L0.787258 30.3384C0.650614 30.86 0.570544 31.3573 0.542163 31.8968C0.530134 32.6759 0.609256 33.4312 0.943441 34.141C1.06129 34.3688 1.19136 34.5673 1.35375 34.7657C1.96254 35.4505 2.74913 35.789 3.65395 35.8454C4.49618 35.8779 5.23447 35.6144 5.93705 35.1625C6.19549 35.6362 6.6699 35.9517 7.17475 36.1021C7.976 36.2833 8.77744 36.1023 9.51498 35.7702C10.0008 36.6934 11.126 36.9342 12.0718 36.7325C12.2935 36.8857 12.49 36.9627 12.76 36.9751C13.1076 36.9915 13.5327 36.8237 13.9926 36.5754C14.225 36.9148 14.5847 37.0592 14.9779 37.1015C15.4839 37.0985 15.8963 36.9225 16.2498 36.5564C16.4233 36.7598 16.6265 36.9084 16.8783 37.0004C16.413 37.7834 15.7788 38.485 15.6777 39.4306C15.6735 39.7466 15.7138 39.9753 15.8344 40.2678C16.0564 40.6753 16.3019 40.8929 16.7345 41.0594L17.0862 41.1245C17.5492 41.125 17.8602 41.0085 18.2275 40.7286L18.4741 40.4818C18.7878 40.0794 18.9481 39.6834 19.0705 39.1959C19.2235 38.5594 19.3537 37.9223 19.5379 37.2936L19.8108 37.3394C20.5352 37.3813 21.1273 37.0953 21.6701 36.6348L21.8109 36.8054L21.9968 36.9648L22.2133 37.0894L22.4445 37.1716L22.6791 37.2129C23.2848 37.2272 23.6801 37.0295 24.1192 36.6297L24.2387 36.5088C24.7612 36.8579 25.4285 36.7207 25.9027 36.3621C26.3974 36.7487 26.9691 36.7006 27.5003 36.4256C27.626 36.3431 27.7422 36.2617 27.8544 36.1604C27.7931 36.5836 27.9163 36.9535 28.155 37.2983C28.5993 37.8123 29.1558 37.9623 29.8041 37.8007C30.6235 37.5435 31.1515 36.8737 31.3914 36.0666C31.5368 36.1192 31.709 36.1247 31.862 36.1348C32.6164 36.076 33.1121 35.7006 33.5592 35.1228C33.6092 35.0539 33.6594 34.9849 33.7051 34.9129C33.9455 35.223 34.2413 35.463 34.5817 35.654C35.4225 36.0756 36.31 36.057 37.1732 35.7136C37.9561 35.3751 38.5863 34.7644 38.9244 33.9748C38.9808 33.8369 39.0305 33.6991 39.0737 33.5568C39.3173 32.6954 39.2413 31.818 38.5722 31.1619L38.3136 30.9683C37.8514 30.7074 37.4402 30.6301 36.9216 30.7608L36.5256 30.9375L36.1865 31.2038C36.0431 31.3696 35.9465 31.5111 35.8465 31.7064C35.6747 32.1515 35.6471 32.5452 35.6706 33.0164C35.6713 33.0448 35.6754 33.1939 35.6268 33.2051C35.4922 33.2271 35.3926 33.01 35.3522 32.9189C34.9454 31.8522 35.4933 30.6388 35.7685 29.6082C35.8592 29.2489 35.9271 28.8959 35.9666 28.5273C36.0222 27.8275 35.8983 27.2293 35.3591 26.7468L35.0713 26.5699C34.4219 26.325 33.8837 26.4874 33.4241 26.9943L33.2886 27.184C33.0922 27.1362 32.8805 27.1439 32.6802 27.1543C31.5205 27.3217 30.8254 28.2767 30.333 29.2618C30.2864 29.3609 30.24 29.4595 30.1973 29.5603C30.0811 29.4757 29.9289 29.4312 29.7939 29.3881C29.0709 29.2425 28.5023 29.4968 28.1356 30.1409C28.0822 30.2571 28.0326 30.3719 28.0027 30.4973C27.9709 30.4662 27.9317 30.4379 27.8888 30.4123C28.5213 27.0077 23.5854 19.8965 23.2604 18.2782ZM18.8756 9.1605C18.7936 10.8997 19.7257 11.6473 20.3683 11.6064C21.0237 11.5645 21.8432 10.6207 21.6968 9.16258C21.524 9.20524 20.851 9.55408 20.1253 8.61148C19.9522 9.00037 19.2785 9.30279 18.8756 9.1605ZM7.52003 32.6892C7.9215 32.8354 8.72819 32.5394 9.07272 32.3471C10.2882 31.6682 10.1262 30.9298 9.43059 31.0414C8.73534 31.1529 7.96492 31.7803 7.52003 32.6892ZM13.5508 33.9692L13.5718 33.9408C13.8064 33.4173 13.8526 33.0534 13.8609 32.5911C13.8716 31.9956 14.0237 31.8786 14.2704 31.8222C14.5879 31.7496 14.9292 31.9727 14.7379 32.7264C14.6165 33.2031 14.5306 33.2266 14.3334 33.6812C14.6802 33.3343 15.0275 32.9833 15.3907 32.6561C15.6754 32.3992 16.4207 31.7787 16.7973 32.1862C17.1806 32.6007 16.6231 33.4186 16.4169 33.8057C16.9533 33.3029 17.5061 32.6727 17.8364 32.4676C18.1044 32.3009 18.4109 32.153 18.6878 32.3334C19.1673 32.646 17.9846 34.1992 17.7843 34.499C17.623 34.7404 17.7025 34.9274 17.804 34.9699C17.9987 35.0518 18.4863 34.7663 18.9047 34.3098C19.1985 33.4867 19.4103 32.6129 19.4962 31.6299C19.5531 30.9715 20.213 31.1186 20.1367 31.7755C20.0435 32.5766 19.6759 33.2288 19.4349 33.9461C19.6772 33.5437 20.7918 32.1639 21.531 32.2533C22.512 32.3719 22.0983 34.0524 21.4671 34.9356C21.0177 35.5644 20.2568 36.2613 19.5633 36.0908C19.1908 35.9993 19.0421 35.5384 19.1708 35.0447C19.2009 34.93 19.2445 34.808 19.3039 34.6939C19.2594 34.759 19.2118 34.8319 19.1774 34.8909C18.2512 36.4827 18.044 38.4683 17.8044 39.0987C17.2913 40.4467 16.1145 39.883 16.5295 38.8904C16.8204 38.195 17.2503 37.7377 17.6354 37.0282C18.0376 36.2869 18.4113 35.5597 18.719 34.7969C18.3211 35.3112 17.764 35.7822 17.2746 35.8525C16.8981 35.9064 16.7101 35.6309 16.671 35.427C16.5686 34.8943 17.4862 33.8179 17.2195 33.8261C16.8214 33.8385 15.7792 34.9371 15.5194 35.3877C15.0268 36.2427 14.0238 35.8835 14.7969 34.9454C15.0619 34.625 15.6957 33.7288 15.4576 33.5951C15.2412 33.4739 14.4518 34.1645 13.8558 34.8298C13.0715 35.7051 12.5937 35.844 12.4473 35.6929C12.2324 35.4719 12.907 35.1693 13.3006 34.4714C13.31 34.4547 13.3192 34.4381 13.3282 34.4218L13.3305 34.4225C12.7521 35.1704 11.7285 35.7427 10.8387 35.526C10.1871 35.3672 10.0219 34.94 10.0089 34.2789C10.0056 34.1075 10.0262 33.9248 10.0704 33.7342L10.0659 33.726C9.18849 34.8191 7.68203 35.1142 7.09147 34.862C6.39453 34.5646 6.30094 33.8744 6.49491 32.9527C6.49491 32.9525 5.86112 33.6583 5.22959 34.0707C4.59824 34.4829 3.98965 34.6872 3.30436 34.5996C2.30857 34.472 1.61011 33.8585 1.40505 32.8501C0.979709 30.7579 1.97982 28.6966 3.29871 27.2122C4.19056 26.2083 6.737 24.3481 8.26113 25.136C10.5034 26.2949 8.13933 30.3488 5.72617 30.3189C5.26492 30.3131 4.47457 30.1798 4.63301 29.5733C4.69748 29.3272 4.91927 28.9575 5.46923 28.9449C6.46841 28.9229 7.36834 28.5953 7.9666 27.7097C8.32184 27.184 8.78346 25.8724 7.80383 25.6142C6.26767 25.2095 4.27909 27.4524 3.29551 29.5357C2.55008 31.1141 2.48469 32.5029 2.90496 33.1661C4.262 34.8513 6.5776 32.5422 6.69206 32.4263C7.3828 30.9547 8.99828 29.6614 10.2954 29.9424C11.3996 30.1751 11.1908 31.4742 10.3984 32.1979C9.58377 32.9418 8.35567 33.3365 7.38469 33.1815C7.31007 33.3916 7.33582 33.8278 7.4734 33.9846C7.93972 34.5169 9.15411 34.4174 10.2433 33.2292L10.2264 33.2502C10.4008 32.824 10.678 32.3751 11.0517 31.9362C11.6103 31.2814 12.2873 30.9177 12.8548 30.9279C13.6062 30.9416 13.8746 31.6342 13.5962 32.152C13.4538 32.4172 13.2331 32.5236 13.0224 32.524C12.6644 32.5246 12.6042 32.2285 12.3659 32.2035C11.4797 32.1112 9.84954 34.4597 11.0807 34.9746C11.4556 35.1313 12.5693 35.0847 13.5342 33.9938L13.5508 33.9692ZM32.9617 32.1056C32.6104 33.3399 32.0795 33.4512 31.7673 33.2854C30.797 32.7704 31.3765 30.1982 31.7584 29.4077C32.1402 28.6171 32.9108 28.4006 33.1536 29.3026C33.3968 30.2048 33.2023 31.2602 32.9617 32.1056ZM33.62 28.737C33.5036 28.1939 33.1645 27.8245 32.5674 27.8805C31.6115 27.97 30.7899 29.6479 30.6063 30.5553C30.0044 33.5265 31.0026 35.3907 32.0296 34.7896C32.6456 34.4287 33.1536 33.5074 33.4803 31.9017C33.5702 32.4586 33.666 33.4235 34.3819 34.1919C35.0029 34.8593 35.9418 34.853 36.6622 34.528C37.1795 34.2945 37.6056 33.8312 37.7954 33.3993C38.0553 32.8082 38.0696 32.3452 37.9377 31.9718C37.7892 31.5504 37.3048 31.3515 37.0054 31.4476C36.4404 31.6287 36.4039 32.1563 36.4372 32.7315C36.4712 33.3166 36.1489 33.7433 35.7442 33.8805C35.0347 34.1203 34.04 33.6367 34.031 31.8034C34.0242 30.4901 34.6676 29.4757 34.7888 28.1852C34.9106 27.0276 34.0197 26.8449 33.7664 27.7841C33.7026 28.0395 33.622 28.4183 33.62 28.737ZM29.4889 30.9141C29.2573 31.6927 28.8468 33.6527 29.1763 33.7047C29.3712 33.7357 29.6601 33.5455 29.8627 33.1236C29.921 33.0018 30.0279 32.973 30.0798 33.1114C30.3227 33.7572 30.4023 34.4849 30.3566 34.9597C30.2882 35.6764 30.0392 36.2085 29.5725 36.4996C29.3287 36.6521 29.0381 36.6865 28.8297 36.5494C28.6071 36.4032 28.4844 36.0284 28.7908 35.6514C28.9771 35.4219 29.1393 35.4003 29.4836 35.021C29.8905 34.5723 30.0492 33.7906 29.9516 33.336C29.8597 34.1224 29.303 34.9458 28.6778 34.6654C28.0967 34.4041 28.404 33.2816 28.4553 32.8888L28.5123 32.5926L28.3837 32.8777C28.1469 33.4188 27.1118 35.742 26.3545 35.3749C26.0269 35.2165 25.967 34.6327 26.0203 33.9481C25.7158 34.6691 25.2416 35.4172 24.7909 35.4745C24.0658 35.567 24.4101 34.0543 24.4234 33.7882C24.2229 34.2148 23.3705 36.0634 22.5677 35.9846C22.1007 35.939 22.1063 35.383 22.1706 34.9293C22.2193 34.5855 22.2988 34.274 22.3939 33.941C22.4621 33.7021 22.5456 33.3796 22.6306 32.9018C22.6954 32.5379 22.6647 31.7068 23.2391 31.7622C23.4389 31.7814 23.6119 31.9494 23.5658 32.2417C23.5102 32.5954 23.3004 32.9448 23.1972 33.5239C23.1006 34.0681 23.0174 34.7404 23.5551 34.5787C24.041 34.4325 24.4774 33.1598 24.6231 32.4845C24.6821 32.2103 24.717 31.9404 24.796 31.6782C24.8695 31.4337 25.1193 31.2906 25.3271 31.3109C25.6487 31.3427 25.6688 31.6801 25.595 31.9259C25.4215 32.5029 24.7084 34.6126 25.2427 34.522C25.5017 34.4776 25.7544 34.0981 26.0731 33.4656C26.3663 32.68 26.3869 31.8353 26.4946 31.3222C26.6145 30.7499 27.4037 30.8472 27.3018 31.3838C27.264 31.5838 26.6898 33.4987 27.0046 33.6213C27.3234 33.7451 27.9012 32.6069 27.954 32.5075C28.3966 31.6744 28.6415 30.8903 28.7374 30.4974C28.8115 30.1952 29.0415 30.0125 29.343 30.0881C29.715 30.1815 29.6016 30.535 29.4889 30.9141ZM19.8251 34.0603C19.6125 34.3906 19.5543 34.528 19.4911 34.8013C19.4281 35.0746 19.4184 35.4198 19.8078 35.4879C20.1247 35.5437 20.632 35.0422 20.9519 34.3896C21.2538 33.7733 21.2318 33.3486 20.8606 33.2679C20.5865 33.2083 20.0381 33.7301 19.8251 34.0603ZM18.1937 31.0955C17.8345 30.9335 17.3913 30.9309 16.9058 31.0188C16.2964 31.1294 15.6974 31.5333 15.2341 32.2706C15.5023 31.5147 16.1002 30.739 16.7894 30.2593C17.3884 29.8426 18.4544 29.4631 19.146 29.8541C19.5765 30.0973 19.6112 30.6083 19.2964 30.9442C19.0291 31.2297 18.5359 31.25 18.1937 31.0955ZM15.6769 14.0006C16.9186 13.1243 17.5204 12.9824 18.1826 12.7403C17.5809 14.0902 17.2229 15.1542 16.9755 16.0884C15.9111 16.6024 15.2491 16.7032 14.6665 16.3209C13.862 15.7925 14.4353 14.8772 15.6769 14.0006ZM19.1051 12.8576C18.5786 13.7282 18.3587 14.584 18.1876 15.3189C18.9648 15.4751 19.8819 15.4907 20.7525 15.2719C20.6747 14.412 20.7367 13.7867 20.939 12.8332C20.204 13.1236 19.6336 13.0454 19.1051 12.8576ZM25.7685 14.9033C26.4145 15.5784 26.9549 16.2617 26.4775 17.1625C25.9997 18.0636 23.9628 17.7166 22.813 16.6504C22.4978 15.5401 22.1909 14.534 22.2426 12.7544C23.4243 13.1809 24.8932 13.9887 25.7685 14.9033ZM30.1084 20.9858C31.0487 20.9858 31.8158 20.8662 31.8158 20.7194C31.8158 20.5726 31.0487 20.4531 30.1084 20.4531C29.1682 20.4531 28.4014 20.5726 28.4014 20.7194C28.4014 20.8662 29.1682 20.9858 30.1084 20.9858ZM11.4092 19.3377C12.271 19.3377 12.9737 19.2325 12.9737 19.1034C12.9737 18.9742 12.271 18.8688 11.4092 18.8688C10.5476 18.8688 9.84447 18.9742 9.84447 19.1034C9.84447 19.2325 10.5476 19.3377 11.4092 19.3377ZM13.9282 18.8607L13.1942 23.2307C13.1933 23.2454 13.1908 23.2596 13.1869 23.2741L13.1846 23.2869H13.1827C13.0818 23.5685 12.3386 23.7885 11.4421 23.7885C10.5454 23.7885 9.80255 23.5685 9.70143 23.2869H9.69936L9.6973 23.2736C9.69317 23.2593 9.69071 23.2452 9.68996 23.2309L8.956 18.8611C8.9404 18.8301 8.93214 18.7987 8.93214 18.7667C8.93214 18.3874 10.0597 18.0781 11.4421 18.0781C12.8245 18.0781 13.9519 18.3874 13.9519 18.7667C13.9519 18.7987 13.9436 18.8299 13.9282 18.8607ZM31.9101 24.9768C31.9095 24.9909 31.9071 25.0052 31.9032 25.0189L31.9007 25.0337H31.8985C31.7949 25.3236 31.0309 25.5497 30.1084 25.5497C29.1863 25.5497 28.4219 25.3236 28.3179 25.0337H28.3164L28.3143 25.0227C28.3098 25.0067 28.307 24.9907 28.3064 24.9747L27.5518 20.4822C27.5358 20.4505 27.5272 20.4181 27.5272 20.3851C27.5272 19.995 28.6869 19.677 30.1084 19.677C31.5303 19.677 32.6898 19.995 32.6898 20.3851C32.6898 20.4178 32.6811 20.4499 32.6653 20.4815L31.9101 24.9768Z" fill="#5BC815"/>
</svg>
