<svg width="67" height="71" viewBox="0 0 67 71" fill="none" xmlns="http://www.w3.org/2000/svg">
<path fill-rule="evenodd" clip-rule="evenodd" d="M34.3416 0.866333C50.9992 0.866333 65.0991 14.0803 65.0991 31.0727C65.0991 36.647 63.5811 41.8145 60.9539 46.2425C61.155 46.7068 61.261 47.1721 61.3052 47.6851C61.3932 49.0542 61.0265 50.4296 60.6327 51.7245C60.5866 51.8754 60.5405 52.0266 60.4954 52.1771L60.8542 51.8932L61.7034 51.511C61.9931 51.4442 62.2645 51.3945 62.5621 51.3691C63.2476 51.3468 63.8055 51.4725 64.4304 51.7567L64.8201 51.9619L65.3636 52.3722C65.5889 52.6038 65.7845 52.8314 65.9711 53.0958C66.2582 53.5388 66.4517 53.9739 66.5886 54.4849C66.7145 55.0314 66.7489 55.5476 66.7133 56.1064C66.6543 56.7667 66.5059 57.3752 66.2743 57.9923C65.7476 59.3578 64.8198 60.4325 63.5966 61.2008L63.3299 61.3554C62.9377 61.5661 62.553 61.7236 62.1298 61.8566C61.4929 62.0419 60.876 62.1383 60.2139 62.1386C58.9184 62.1074 57.658 61.6902 56.668 60.8252C56.2164 61.3233 55.7399 61.6937 55.1466 62.0008C54.5716 62.2544 53.9316 62.4467 53.3001 62.4059C53.0758 62.9256 52.7788 63.3724 52.4222 63.8068L51.9832 64.2498C51.732 64.4579 51.4884 64.6323 51.2116 64.8036C50.9052 64.9643 50.6164 65.0884 50.2911 65.2036C50.0269 65.2628 49.7776 65.3057 49.5091 65.3334C49.2512 65.343 49.0155 65.336 48.7599 65.3099C48.5046 65.265 48.2786 65.2065 48.0334 65.1231C47.792 65.0193 47.5828 64.9092 47.3603 64.7701C46.9999 64.5066 46.683 64.2298 46.4341 63.8542C46.2759 63.5965 46.1368 63.3368 46.0351 63.0513C45.2052 63.359 44.295 63.3626 43.4947 62.9629C42.714 63.3861 41.7082 63.5395 40.8644 63.2292C40.5731 63.4749 40.2708 63.6744 39.9356 63.852C39.4591 64.0716 39.0277 64.1833 38.507 64.2323L37.9976 64.2419L37.4523 64.1445L36.9152 63.952L36.4061 63.6572L36.2969 63.5624C35.4742 64.1254 34.4751 64.4821 33.4763 64.463C33.2778 65.2338 33.1124 66.0141 32.9303 66.7897C32.8145 67.2753 32.6678 67.7399 32.4702 68.1988C32.2572 68.66 32.0098 69.0581 31.7059 69.4632L31.1997 69.9737L30.8835 70.2041C30.2886 70.5927 29.736 70.7919 29.0307 70.8539L28.6113 70.8663L27.8428 70.7228C27.5481 70.6032 27.2824 70.4797 27.0113 70.3139C26.3978 69.897 25.9213 69.3283 25.6597 68.6246C25.506 68.1794 25.4299 67.7606 25.4126 67.2906C25.399 66.3333 25.7852 65.4012 26.2378 64.5795C26.4088 64.2794 26.591 63.9879 26.7784 63.6986C26.3132 63.9138 25.8582 64.0108 25.3507 64.048C24.6306 64.0675 23.8653 63.825 23.3 63.3686C22.8885 63.5538 22.4878 63.6999 22.046 63.7903C21.3592 63.8991 20.699 63.8199 20.0871 63.4759C19.4711 63.5599 18.8898 63.557 18.2757 63.4625C17.4943 63.3145 16.8414 63.0472 16.2033 62.5634L15.906 62.3006L15.6374 62.01C14.2978 62.4979 12.7679 62.6924 11.4036 62.1911C10.7551 61.9225 10.2082 61.5776 9.72091 61.0604C9.55081 61.1467 9.38232 61.2316 9.20843 61.3109C8.49017 61.6231 7.77535 61.8217 6.9965 61.9022C6.46727 61.9461 5.9712 61.9311 5.44386 61.8586C4.75621 61.75 4.12787 61.562 3.49734 61.2603C2.5913 60.7979 1.82824 60.1655 1.24032 59.3235C1.1043 59.1239 0.979015 58.919 0.861619 58.7067C0.501541 58.0387 0.286638 57.2867 0.151253 56.5401C-0.0251565 55.4845 -0.0428339 54.4327 0.0751934 53.3689C0.13326 52.8969 0.212465 52.4329 0.313451 51.9677C0.809544 49.797 1.88316 47.7577 3.22438 46.0035C3.474 45.6866 3.73087 45.3801 3.99943 45.0791C4.65174 44.3668 5.36496 43.7192 6.12646 43.1349C4.49585 39.4608 3.58446 35.3893 3.58446 31.0727C3.58446 14.0803 17.684 0.866333 34.3416 0.866333Z" fill="#FEFEFE"/>
<path fill-rule="evenodd" clip-rule="evenodd" d="M59.6107 44.6631L59.274 44.4547C58.9884 44.3563 58.7258 44.2793 58.4298 44.2214C58.1764 44.1918 57.9482 44.1826 57.6967 44.1927C59.961 40.328 61.2561 35.8482 61.2561 31.0727C61.2561 16.503 49.2034 4.68742 34.3415 4.68742C19.4795 4.68742 7.42683 16.503 7.42683 31.0727C7.42683 34.6456 8.1533 38.0523 9.46643 41.1602C8.93562 41.3811 8.41839 41.6389 7.90399 41.9329L7.76513 42.0157C6.32103 38.65 5.52197 34.9527 5.52197 31.0727C5.52197 15.4719 18.4277 2.82031 34.3415 2.82031C50.2553 2.82031 63.161 15.4719 63.161 31.0727C63.161 35.9994 61.8728 40.6301 59.6107 44.6631Z" fill="#28009F"/>
<path fill-rule="evenodd" clip-rule="evenodd" d="M39.0547 31.2579C42.5087 32.9456 45.3079 32.2206 46.5043 30.5149C46.9325 31.0979 48.09 31.7468 49.1555 32.1296L49.5644 32.2649C50.1375 32.4364 50.6737 32.5217 51.1348 32.4937C51.5208 32.4695 51.8966 32.4727 52.2974 32.0233C52.6979 31.5737 52.884 30.462 52.0733 29.5738C51.9288 29.1999 51.0717 29.2247 51.3734 29.696C51.7641 30.3198 51.812 30.631 51.3825 30.9212C50.953 31.2121 49.5329 30.7201 49.1738 30.1253C49.1753 30.1241 49.1769 30.1222 49.1785 30.1209C49.5897 29.7056 49.4117 28.944 48.7831 28.4256C48.2617 27.996 47.5886 27.8655 47.1402 28.0711C45.6147 25.1579 43.3175 21.6777 36.4044 20.1008C39.0524 18.0701 38.5055 11.8558 34.5753 11.4867C32.4413 11.2862 30.6542 13.2971 30.598 15.9621C30.563 17.5794 31.1727 19.0757 32.1346 20.0473C26.9026 20.8331 23.577 24.0689 20.7484 27.2847C20.6285 27.2029 20.4937 27.1345 20.348 27.0855C19.6881 26.8666 19.0383 27.1221 18.9036 27.6555C18.8628 27.8133 18.8717 27.9791 18.9225 28.1389C18.8385 28.144 18.7565 28.1424 18.6769 28.1316C18.108 28.0558 17.7223 27.603 18.5722 26.5022C18.92 26.0512 18.1105 25.8374 17.924 26.2155C16.5301 27.6609 16.9867 29.1942 18.2689 29.5843C19.3627 29.9166 21.0498 29.5051 22.5861 28.7302C22.8212 30.7039 25.7703 31.5383 28.1015 29.9223C25.6018 37.2902 23.3961 44.0432 23.215 51.0856C23.2087 51.3125 23.2387 51.5362 23.298 51.7574C23.1431 51.6829 22.9802 51.618 22.7924 51.5534C22.4538 51.4846 22.1509 51.4401 21.8062 51.4404C21.2874 51.463 20.8198 51.5629 20.3328 51.7437C20.0456 51.0643 19.6748 50.6388 19.0702 50.2324C18.1291 49.7187 17.1852 49.6159 16.1375 49.7856C16.7178 48.8713 17.0706 47.9054 17.2859 46.846L17.3689 45.8378L17.2619 44.8105L16.9208 43.7988L16.6519 43.3196L16.3174 42.8724L15.9204 42.4686L15.4691 42.1144L14.9739 41.8178C14.2809 41.5002 13.7128 41.3624 12.9545 41.3134L12.1634 41.3481C9.63083 41.7083 7.34097 43.1856 5.46516 44.8907C3.70642 46.558 2.36079 48.6666 1.5428 50.9605L1.32189 51.6778C1.09247 52.5609 0.958026 53.403 0.910374 54.3163C0.890176 55.6354 1.02302 56.9144 1.58413 58.1161C1.782 58.5018 2.00038 58.8379 2.27304 59.1739C3.29521 60.3333 4.61591 60.9065 6.13512 61.0019C7.54924 61.057 8.78883 60.6108 9.96848 59.8458C10.4024 60.6477 11.1989 61.1821 12.0466 61.4366C13.3919 61.7434 14.7375 61.437 15.9759 60.8746C16.7917 62.4378 18.6807 62.8455 20.2687 62.504C20.6411 62.7634 20.9709 62.8938 21.4244 62.9148C22.0079 62.9425 22.7218 62.6584 23.494 62.238C23.8841 62.8127 24.4881 63.0571 25.1483 63.1287C25.9978 63.1236 26.6902 62.8258 27.2838 62.2058C27.5751 62.5502 27.9162 62.8019 28.3391 62.9575C27.5577 64.2833 26.4929 65.4713 26.3232 67.0723C26.3162 67.6073 26.3837 67.9946 26.5863 68.4898C26.959 69.1797 27.3712 69.5483 28.0977 69.8302L28.6881 69.9403C29.4654 69.9413 29.9877 69.744 30.6043 69.2701L31.0184 68.8523C31.5451 68.1709 31.8143 67.5004 32.0197 66.6749C32.2766 65.5973 32.4953 64.5185 32.8046 63.454L33.2628 63.5316C34.479 63.6026 35.4731 63.1182 36.3845 62.3385L36.6209 62.6275L36.933 62.8973L37.2966 63.1083L37.6847 63.2474L38.0786 63.3174C39.0957 63.3416 39.7593 63.0068 40.4965 62.3299L40.6973 62.1253C41.5746 62.7163 42.6949 62.484 43.4911 61.8768C44.3217 62.5314 45.2817 62.4499 46.1735 61.9843C46.3846 61.8446 46.5797 61.7068 46.7681 61.5353C46.6652 62.252 46.8719 62.8783 47.2727 63.4619C48.0187 64.3323 48.9532 64.5862 50.0416 64.3125C51.4175 63.8772 52.304 62.743 52.7067 61.3765C52.951 61.4656 53.24 61.4748 53.4969 61.492C54.7637 61.3924 55.5958 60.7569 56.3466 59.7786C56.4305 59.6618 56.5148 59.545 56.5915 59.4231C56.9951 59.9482 57.4919 60.3546 58.0634 60.6779C59.475 61.3917 60.9651 61.3603 62.4146 60.7788C63.729 60.2057 64.7871 59.1717 65.3549 57.8348C65.4495 57.6012 65.5328 57.368 65.6054 57.127C66.0144 55.6686 65.8869 54.183 64.7635 53.072L64.3292 52.7442C63.5532 52.3025 62.8627 52.1717 61.992 52.3929L61.3271 52.692L60.7578 53.143C60.517 53.4237 60.3548 53.6633 60.1869 53.994C59.8985 54.7476 59.8521 55.4143 59.8915 56.2121C59.8928 56.2602 59.8997 56.5125 59.818 56.5316C59.592 56.5688 59.4248 56.2013 59.3569 56.0469C58.674 54.2409 59.5939 52.1864 60.0559 50.4415C60.2084 49.833 60.3223 49.2353 60.3886 48.6112C60.482 47.4264 60.274 46.4135 59.3686 45.5966L58.8855 45.2971C57.7951 44.8824 56.8913 45.1574 56.1197 46.0157L55.8922 46.3368C55.5624 46.256 55.2071 46.269 54.8706 46.2865C52.9235 46.5701 51.7565 48.187 50.9297 49.8549C50.8514 50.0226 50.7734 50.1897 50.7018 50.3603C50.5068 50.2171 50.2512 50.1417 50.0246 50.0688C48.8105 49.8222 47.8559 50.2527 47.2402 51.3433C47.1506 51.54 47.0673 51.7345 47.0171 51.9467C46.9637 51.8942 46.8978 51.8461 46.8259 51.8029C47.8878 46.0383 39.6003 33.998 39.0547 31.2579ZM31.6925 15.8201C31.5549 18.7648 33.1198 20.0308 34.1988 19.9614C35.2993 19.8904 36.6752 18.2926 36.4293 15.8237C36.1393 15.8959 35.0092 16.4865 33.7908 14.8906C33.5001 15.549 32.3691 16.0611 31.6925 15.8201ZM12.6263 55.658C13.3004 55.9056 14.6549 55.4044 15.2333 55.0788C17.2742 53.9294 17.0022 52.679 15.8342 52.868C14.6669 53.0568 13.3733 54.119 12.6263 55.658ZM22.752 57.8252L22.7874 57.7772C23.1812 56.8909 23.2589 56.2748 23.2727 55.4919C23.2907 54.4837 23.546 54.2855 23.9604 54.19C24.4934 54.0672 25.0665 54.4449 24.7453 55.721C24.5414 56.5281 24.3972 56.5679 24.0661 57.3377C24.6484 56.7502 25.2316 56.1561 25.8413 55.602C26.3194 55.167 27.5707 54.1165 28.2031 54.8064C28.8466 55.5081 27.9105 56.8931 27.5643 57.5484C28.465 56.6971 29.3932 55.63 29.9476 55.2828C30.3976 55.0006 30.9124 54.7501 31.3772 55.0556C32.1823 55.5848 30.1966 58.2148 29.8602 58.7224C29.5894 59.131 29.7229 59.4476 29.8933 59.5196C30.2203 59.6583 31.0389 59.1749 31.7414 58.4019C32.2346 57.0083 32.5903 55.5288 32.7345 53.8644C32.8301 52.7496 33.9381 52.9988 33.81 54.1111C33.6535 55.4674 33.0362 56.5717 32.6316 57.7861C33.0384 57.1048 34.9098 54.7686 36.151 54.92C37.798 55.1208 37.1034 57.9662 36.0437 59.4616C35.2892 60.5261 34.0117 61.7062 32.8472 61.4175C32.2217 61.2626 31.9721 60.4822 32.1883 59.6462C32.2387 59.4521 32.312 59.2456 32.4117 59.0524C32.3369 59.1625 32.257 59.286 32.1993 59.3859C30.6441 62.0811 30.2963 65.443 29.894 66.5103C29.0324 68.7927 27.0566 67.8383 27.7534 66.1577C28.2419 64.9802 28.9636 64.206 29.6103 63.0046C30.2856 61.7495 30.913 60.5182 31.4296 59.2268C30.7615 60.0975 29.8261 60.895 29.0043 61.014C28.3722 61.1053 28.0567 60.6388 27.991 60.2935C27.819 59.3916 29.3597 57.569 28.9119 57.5831C28.2435 57.6041 26.4936 59.4642 26.0574 60.227C25.2303 61.6747 23.5464 61.0665 24.8444 59.4782C25.2893 58.9356 26.3535 57.4182 25.9536 57.1919C25.5904 56.9867 24.2649 58.1559 23.2642 59.2825C21.9473 60.7645 21.1451 60.9997 20.8993 60.7438C20.5386 60.3696 21.6712 59.8572 22.332 58.6756C22.3478 58.6473 22.3632 58.6193 22.3784 58.5916L22.3822 58.5928C21.4111 59.8591 19.6925 60.8282 18.1985 60.4612C17.1044 60.1923 16.827 59.469 16.8052 58.3497C16.7996 58.0595 16.8343 57.7501 16.9084 57.4274L16.9009 57.4135C15.4277 59.2643 12.8984 59.764 11.9068 59.3369C10.7366 58.8334 10.5795 57.6648 10.9051 56.1042C10.9051 56.1039 9.84099 57.2989 8.78064 57.9971C7.7206 58.695 6.69876 59.0409 5.54815 58.8926C3.8762 58.6765 2.70351 57.6378 2.35921 55.9304C1.64505 52.3881 3.32426 48.898 5.53869 46.3845C7.03612 44.6848 11.3116 41.5352 13.8706 42.8693C17.6355 44.8315 13.6661 51.6953 9.6144 51.6447C8.83997 51.6348 7.51294 51.4092 7.77898 50.3823C7.88722 49.9657 8.25962 49.3397 9.18301 49.3184C10.8606 49.2812 12.3716 48.7264 13.3761 47.2269C13.9726 46.3368 14.7476 44.1161 13.1028 43.6789C10.5236 42.9937 7.18476 46.7912 5.53333 50.3186C4.28173 52.9912 4.1719 55.3427 4.87754 56.4654C7.15604 59.3188 11.044 55.4092 11.2362 55.2128C12.396 52.7213 15.1084 50.5315 17.2862 51.0073C19.1402 51.4012 18.7896 53.6009 17.4591 54.8261C16.0914 56.0857 14.0294 56.754 12.3991 56.4915C12.2738 56.8473 12.317 57.5859 12.548 57.8513C13.331 58.7526 15.37 58.5842 17.1988 56.5723L17.1704 56.608C17.4632 55.8862 17.9287 55.1262 18.5561 54.3832C19.494 53.2744 20.6307 52.6586 21.5835 52.6758C22.8452 52.6991 23.2958 53.8718 22.8284 54.7485C22.5892 55.1975 22.2187 55.3777 21.865 55.3783C21.2638 55.3793 21.1628 54.878 20.7626 54.8357C19.2746 54.6795 16.5376 58.6559 18.6047 59.5275C19.2343 59.7929 21.1041 59.714 22.7243 57.867L22.752 57.8252ZM55.3434 54.6699C54.7535 56.7598 53.862 56.9482 53.3379 56.6675C51.7088 55.7955 52.6818 51.4404 53.323 50.1019C53.964 48.7634 55.2578 48.3967 55.6656 49.924C56.0739 51.4515 55.7473 53.2384 55.3434 54.6699ZM56.4486 48.9664C56.2532 48.0467 55.6839 47.4214 54.6813 47.5162C53.0763 47.6677 51.6968 50.5086 51.3885 52.0451C50.378 57.0758 52.0541 60.2321 53.7784 59.2144C54.8126 58.6034 55.6656 57.0433 56.2141 54.3246C56.3649 55.2676 56.5259 56.9014 57.7279 58.2023C58.7706 59.3324 60.3469 59.3216 61.5565 58.7714C62.425 58.3761 63.1404 57.5916 63.4592 56.8603C63.8956 55.8595 63.9196 55.0757 63.6981 54.4433C63.4488 53.7298 62.6355 53.3931 62.1328 53.5557C61.1842 53.8625 61.1229 54.7558 61.1788 55.7296C61.2359 56.7203 60.6947 57.4427 60.0152 57.675C58.8239 58.0811 57.1539 57.2623 57.1387 54.1582C57.1274 51.9346 58.2076 50.2171 58.4111 48.0321C58.6156 46.072 57.1198 45.7627 56.6944 47.3529C56.5874 47.7854 56.452 48.4267 56.4486 48.9664ZM49.5124 52.6526C49.1236 53.9707 48.4344 57.2893 48.9876 57.3775C49.3148 57.43 49.7999 57.1079 50.1401 56.3935C50.2379 56.1873 50.4175 56.1386 50.5046 56.3728C50.9123 57.4663 51.0461 58.6985 50.9694 59.5024C50.8546 60.7158 50.4364 61.6167 49.6528 62.1097C49.2435 62.3678 48.7556 62.426 48.4056 62.194C48.032 61.9465 47.8259 61.3119 48.3403 60.6735C48.653 60.2849 48.9254 60.2483 49.5035 59.6061C50.1868 58.8465 50.4531 57.5229 50.2894 56.7531C50.135 58.0846 49.2003 59.4788 48.1506 59.004C47.1749 58.5617 47.6908 56.6611 47.777 55.996L47.8726 55.4944L47.6567 55.9772C47.2591 56.8934 45.5212 60.8269 44.2497 60.2054C43.6997 59.9371 43.599 58.9486 43.6887 57.7896C43.1774 59.0104 42.3812 60.277 41.6244 60.374C40.4069 60.5306 40.9851 57.9694 41.0075 57.5188C40.6708 58.2412 39.2396 61.3711 37.8917 61.2377C37.1075 61.1604 37.117 60.219 37.2249 59.4508C37.3066 58.8688 37.4401 58.3414 37.5998 57.7775C37.7144 57.373 37.8545 56.8269 37.9971 56.018C38.106 55.4018 38.0546 53.9946 39.019 54.0885C39.3544 54.1209 39.6448 54.4054 39.5675 54.9003C39.4741 55.4992 39.1219 56.0909 38.9486 57.0714C38.7864 57.9927 38.6466 59.131 39.5495 58.8573C40.3653 58.6097 41.0981 56.4549 41.3426 55.3115C41.4417 54.8471 41.5004 54.3902 41.6329 53.9462C41.7563 53.5322 42.1758 53.29 42.5248 53.3244C43.0648 53.3782 43.0985 53.9494 42.9745 54.3657C42.6832 55.3427 41.4859 58.9146 42.3831 58.7612C42.818 58.6861 43.2421 58.0436 43.7773 56.9727C44.2696 55.6424 44.304 54.2123 44.4849 53.3435C44.6862 52.3744 46.0113 52.5393 45.8403 53.4479C45.7768 53.7865 44.8128 57.0287 45.3414 57.2362C45.8766 57.4459 46.8467 55.5187 46.9354 55.3503C47.6785 53.9399 48.0897 52.6122 48.2507 51.947C48.375 51.4353 48.7613 51.126 49.2675 51.2539C49.892 51.4121 49.7017 52.0107 49.5124 52.6526ZM33.2868 57.9796C32.9299 58.5387 32.832 58.7714 32.726 59.2341C32.6203 59.6968 32.6039 60.2814 33.2577 60.3966C33.7898 60.4911 34.6416 59.6421 35.1787 58.5372C35.6855 57.4936 35.6486 56.7744 35.0253 56.6379C34.5652 56.537 33.6443 57.4204 33.2868 57.9796ZM30.5475 52.9597C29.9445 52.6854 29.2003 52.6809 28.3852 52.8298C27.362 53.017 26.3563 53.7009 25.5784 54.9493C26.0287 53.6693 27.0326 52.356 28.1898 51.5438C29.1956 50.8383 30.9852 50.1958 32.1466 50.8577C32.8693 51.2695 32.9277 52.1348 32.3991 52.7035C31.9503 53.1869 31.1222 53.2213 30.5475 52.9597ZM26.3219 24.0151C28.4066 22.5315 29.4171 22.2912 30.5289 21.8813C29.5187 24.1669 28.9175 25.9685 28.5022 27.5501C26.7151 28.4205 25.6036 28.5911 24.6253 27.9438C23.2747 27.0492 24.2372 25.4994 26.3219 24.0151ZM32.0778 22.0799C31.1939 23.554 30.8246 25.003 30.5374 26.2473C31.8424 26.5117 33.3821 26.5382 34.8438 26.1677C34.7132 24.7118 34.8173 23.653 35.1569 22.0386C33.923 22.5302 32.9652 22.3979 32.0778 22.0799ZM43.2658 25.5436C44.3504 26.6868 45.2577 27.8436 44.4561 29.3689C43.6539 30.8945 40.234 30.3071 38.3036 28.5017C37.7743 26.6219 37.259 24.9183 37.3458 21.9052C39.3298 22.6273 41.7961 23.9951 43.2658 25.5436ZM50.5525 35.8422C52.1314 35.8422 53.4193 35.6398 53.4193 35.3913C53.4193 35.1427 52.1314 34.9403 50.5525 34.9403C48.974 34.9403 47.6864 35.1427 47.6864 35.3913C47.6864 35.6398 48.974 35.8422 50.5525 35.8422ZM19.1563 33.0519C20.6033 33.0519 21.7832 32.8737 21.7832 32.655C21.7832 32.4364 20.6033 32.2579 19.1563 32.2579C17.7097 32.2579 16.5291 32.4364 16.5291 32.655C16.5291 32.8737 17.7097 33.0519 19.1563 33.0519ZM23.3857 32.2442L22.1534 39.6433C22.1518 39.6681 22.1477 39.6923 22.1411 39.7168L22.1373 39.7384H22.1341C21.9647 40.2151 20.7169 40.5878 19.2116 40.5878C17.7059 40.5878 16.4587 40.2151 16.2889 39.7384H16.2855L16.282 39.7158C16.2751 39.6916 16.271 39.6678 16.2697 39.6436L15.0373 32.2448C15.0112 32.1923 14.9973 32.1392 14.9973 32.0851C14.9973 31.4429 16.8905 30.919 19.2116 30.919C21.5326 30.919 23.4255 31.4429 23.4255 32.0851C23.4255 32.1392 23.4116 32.192 23.3857 32.2442ZM53.5777 42.5997C53.5767 42.6236 53.5726 42.6478 53.566 42.671L53.5619 42.6961H53.5581C53.3842 43.1868 52.1014 43.5697 50.5525 43.5697C49.0043 43.5697 47.7208 43.1868 47.5463 42.6961H47.5438L47.5403 42.6773C47.5327 42.6503 47.528 42.6233 47.5271 42.5962L46.26 34.9897C46.2332 34.9359 46.2187 34.8811 46.2187 34.8251C46.2187 34.1648 48.1658 33.6263 50.5525 33.6263C52.9399 33.6263 54.8867 34.1648 54.8867 34.8251C54.8867 34.8805 54.8722 34.9349 54.8457 34.9884L53.5777 42.5997Z" fill="#28009F"/>
</svg>
