<svg width="20" height="17" viewBox="0 0 20 17" fill="none" xmlns="http://www.w3.org/2000/svg">
<path d="M8.1221 17C7.55753 17 7.01608 16.7761 6.61687 16.3776C6.21765 15.9791 5.99338 15.4386 5.99338 14.875C5.99338 14.3114 6.21765 13.7709 6.61687 13.3724C7.01608 12.9739 7.55753 12.75 8.1221 12.75C8.68667 12.75 9.22812 12.9739 9.62733 13.3724C10.0265 13.7709 10.2508 14.3114 10.2508 14.875C10.2508 15.4386 10.0265 15.9791 9.62733 16.3776C9.22812 16.7761 8.68667 17 8.1221 17ZM15.5726 17C15.008 17 14.4666 16.7761 14.0674 16.3776C13.6682 15.9791 13.4439 15.4386 13.4439 14.875C13.4439 14.3114 13.6682 13.7709 14.0674 13.3724C14.4666 12.9739 15.008 12.75 15.5726 12.75C16.1372 12.75 16.6786 12.9739 17.0778 13.3724C17.4771 13.7709 17.7013 14.3114 17.7013 14.875C17.7013 15.4386 17.4771 15.9791 17.0778 16.3776C16.6786 16.7761 16.1372 17 15.5726 17ZM1.6955 2.04319C1.42979 2.03463 1.17783 1.92325 0.99291 1.7326C0.807985 1.54195 0.70459 1.28697 0.70459 1.02159C0.70459 0.756215 0.807985 0.501239 0.99291 0.310587C1.17783 0.119935 1.42979 0.00855505 1.6955 0H2.92057C3.88063 0 4.71083 0.665125 4.91944 1.60013L6.25308 7.59475C6.4617 8.52975 7.2919 9.19488 8.25195 9.19488H16.2474L17.7822 3.06425H7.83578C7.57258 3.05226 7.32414 2.93945 7.14212 2.74927C6.96011 2.5591 6.85854 2.30621 6.85854 2.04319C6.85854 1.78017 6.96011 1.52727 7.14212 1.3371C7.32414 1.14693 7.57258 1.03411 7.83578 1.02212H17.7822C18.0934 1.02203 18.4004 1.09276 18.6801 1.22892C18.9598 1.36509 19.2046 1.56311 19.3961 1.80793C19.5876 2.05276 19.7206 2.33794 19.7851 2.6418C19.8496 2.94566 19.8439 3.26019 19.7683 3.5615L18.2335 9.69C18.1229 10.1322 17.8673 10.5248 17.5074 10.8053C17.1475 11.0858 16.704 11.2381 16.2474 11.2381H8.25195C7.32042 11.2382 6.4167 10.9211 5.69005 10.3393C4.9634 9.75745 4.45728 8.94559 4.25528 8.03781L2.92057 2.04319H1.6955Z" fill="white"/>
</svg>
