<svg width="37" height="38" viewBox="0 0 37 38" fill="none" xmlns="http://www.w3.org/2000/svg">
<path fill-rule="evenodd" clip-rule="evenodd" d="M36.2853 19.7146C36.2878 19.7121 36.2903 19.7097 36.2928 19.7072C36.3668 19.6332 36.4267 19.5505 36.4727 19.4624C36.6694 19.0854 36.6094 18.6094 36.2928 18.2928C36.2884 18.2884 36.284 18.284 36.2795 18.2797L19.3222 1.32238C18.9317 0.931859 18.2986 0.931859 17.908 1.32238C17.5175 1.71291 17.5175 2.34608 17.908 2.7366L34.1714 19.0001L17.9081 35.2635C17.5176 35.654 17.5176 36.2871 17.9081 36.6777C18.2986 37.0682 18.9318 37.0682 19.3223 36.6777L36.2853 19.7146Z" fill="white"/>
</svg>
