<svg width="40" height="40" viewBox="0 0 40 40" fill="none" xmlns="http://www.w3.org/2000/svg">
<mask id="path-2-inside-1" fill="white">
<rect x="8.54102" y="10.2556" width="21.9659" height="8.33333" rx="1" transform="rotate(-12.0935 8.54102 10.2556)"/>
</mask>
<rect x="8.54102" y="10.2556" width="21.9659" height="8.33333" rx="1" transform="rotate(-12.0935 8.54102 10.2556)" fill="#C4C4C4" stroke="#9C9C9C" stroke-width="3" mask="url(#path-2-inside-1)"/>
<path d="M6 13C6 11.8954 6.89543 11 8 11L32 11C33.1046 11 34 11.8954 34 13V32C34 33.1046 33.1046 34 32 34H8C6.89543 34 6 33.1046 6 32L6 13Z" fill="#ECECEC" stroke="#9C9C9C" stroke-width="2"/>
<path d="M22.5267 25.7236C22.3021 26.1127 21.9322 26.3965 21.4982 26.5128C21.0643 26.6291 20.602 26.5682 20.213 26.3436C19.8239 26.119 19.54 25.749 19.4238 25.3151C19.3075 24.8812 19.3684 24.4189 19.593 24.0298C19.8176 23.6408 20.1876 23.3569 20.6215 23.2407C21.0554 23.1244 21.5177 23.1853 21.9068 23.4099C22.2958 23.6345 22.5797 24.0044 22.6959 24.4383C22.8122 24.8723 22.7513 25.3346 22.5267 25.7236Z" fill="#9C9C9C"/>
<path d="M13.7259 20.6422C13.5013 21.0312 13.1314 21.3151 12.6975 21.4314C12.2635 21.5477 11.8012 21.4868 11.4122 21.2622C11.0231 21.0376 10.7393 20.6676 10.623 20.2337C10.5067 19.7998 10.5676 19.3375 10.7922 18.9484C11.0168 18.5594 11.3868 18.2755 11.8207 18.1592C12.2546 18.043 12.7169 18.1038 13.106 18.3284C13.495 18.5531 13.7789 18.923 13.8952 19.3569C14.0114 19.7908 13.9506 20.2532 13.7259 20.6422Z" fill="#9C9C9C"/>
<rect x="18.9473" y="15.8334" width="2.54069" height="13.5504" rx="1.27035" transform="rotate(30 18.9473 15.8334)" fill="#9C9C9C"/>
<path d="M26 18.6666C26 18.1143 26.4477 17.6666 27 17.6666H34V27.3333H27C26.4477 27.3333 26 26.8856 26 26.3333V18.6666Z" fill="#ECECEC" stroke="#9C9C9C" stroke-width="2"/>
<rect x="30" y="20" width="5" height="5" rx="2" fill="#9C9C9C"/>
</svg>
