<svg width="37" height="38" viewBox="0 0 37 38" fill="none" xmlns="http://www.w3.org/2000/svg">
<path fill-rule="evenodd" clip-rule="evenodd" d="M0.715165 19.7151C0.712507 19.7125 0.709859 19.7098 0.707223 19.7072C0.61186 19.6118 0.539784 19.502 0.490995 19.3848C0.339905 19.0219 0.411961 18.588 0.707161 18.2928C0.711275 18.2887 0.715416 18.2847 0.719583 18.2806L17.6777 1.32237C18.0683 0.931848 18.7014 0.931848 19.0919 1.32237C19.4825 1.7129 19.4825 2.34607 19.0919 2.73659L2.82858 19.0001L19.0919 35.2635C19.4824 35.654 19.4824 36.2871 19.0919 36.6777C18.7014 37.0682 18.0682 37.0682 17.6777 36.6777L0.715165 19.7151Z" fill="white"/>
</svg>
