<svg width="40" height="40" viewBox="0 0 40 40" fill="none" xmlns="http://www.w3.org/2000/svg">
<path d="M29.833 14.0192V14.441L30.1351 14.7354L30.3642 14.9586C30.5574 15.1468 30.6663 15.4051 30.6663 15.6748V17.8295C30.6663 18.0992 30.5574 18.3575 30.3642 18.5457L30.1351 18.7689L29.833 19.0633V19.4851V20.5149V20.9367L30.1351 21.2311L30.3642 21.4543C30.5574 21.6425 30.6663 21.9008 30.6663 22.1705V24.3252C30.6663 24.5949 30.5574 24.8532 30.3642 25.0414L30.1351 25.2646L29.833 25.559V25.9808V30.2585V30.6803L30.1351 30.9747L30.3642 31.1979C30.5574 31.3861 30.6663 31.6444 30.6663 31.9141V34.0688C30.6663 34.3385 30.5574 34.5968 30.3642 34.785L28.8953 36.2162C28.7086 36.3982 28.4582 36.5 28.1975 36.5H11.8019C11.5412 36.5 11.2908 36.3982 11.104 36.2162L9.63514 34.785C9.44196 34.5968 9.33301 34.3385 9.33301 34.0688V31.9141C9.33301 31.6444 9.44196 31.3861 9.63514 31.1979L9.8642 30.9747L10.1663 30.6803V30.2585V25.9808V25.559L9.8642 25.2646L9.63514 25.0414C9.44196 24.8532 9.33301 24.5949 9.33301 24.3252V22.1705C9.33301 21.9008 9.44196 21.6425 9.63514 21.4543L8.93797 20.7388L9.63514 21.4543L9.86421 21.2311L10.1663 20.9367V20.5149V19.4851V19.0633L9.8642 18.7689L9.63514 18.5457C9.44196 18.3575 9.33301 18.0992 9.33301 17.8295V15.6748C9.33301 15.4051 9.44196 15.1468 9.63514 14.9586L9.86421 14.7354L10.1663 14.441V14.0192V13.2969C10.1663 12.9298 10.3675 12.5922 10.6903 12.4175L15.6885 9.7119C16.2539 9.40582 16.5487 8.89606 16.6931 8.44366C16.8359 7.99603 16.859 7.53007 16.835 7.14535C16.8337 7.12426 16.833 7.10287 16.833 7.0812V4.5C16.833 3.94772 17.2807 3.5 17.833 3.5H22.1663C22.7186 3.5 23.1663 3.94772 23.1663 4.5V7.0812C23.1663 7.10287 23.1657 7.12426 23.1644 7.14535C23.1404 7.53007 23.1634 7.99603 23.3063 8.44366C23.4507 8.89606 23.7454 9.40582 24.3109 9.7119L29.3091 12.4175C29.6319 12.5922 29.833 12.9298 29.833 13.2969V14.0192Z" fill="#ECECEC" stroke="#9C9C9C" stroke-width="2"/>
<path d="M23.1663 26.2647C23.7186 26.2647 24.1663 26.7124 24.1663 27.2647V27.3333C24.1663 27.8856 23.7186 28.3333 23.1663 28.3333H16.955C16.3573 28.3333 15.8861 27.8059 16.0856 27.2425C16.2228 26.8548 16.4093 26.4787 16.6452 26.1141C17.0964 25.4113 17.9875 24.4814 19.3186 23.3242C20.3903 22.389 21.0473 21.7549 21.2899 21.4221C21.617 20.9624 21.7806 20.508 21.7806 20.0588C21.7806 19.5622 21.6367 19.1817 21.3491 18.9175C21.0671 18.6481 20.6751 18.5133 20.1731 18.5133C19.6768 18.5133 19.282 18.6533 18.9887 18.9334C18.8767 19.0403 18.7828 19.1741 18.707 19.3349C18.4675 19.843 18.0204 20.2852 17.4611 20.2328L17.1291 20.2017C16.571 20.1494 16.1495 19.6421 16.3172 19.1072C16.5423 18.3892 16.9167 17.8425 17.4405 17.4671C18.185 16.9335 19.1156 16.6666 20.2323 16.6666C21.4562 16.6666 22.4179 16.9757 23.1173 17.5939C23.8167 18.2121 24.1663 18.9809 24.1663 19.9003C24.1663 20.4234 24.0648 20.9227 23.8618 21.3983C23.6644 21.8685 23.3485 22.3626 22.9142 22.8804C22.6266 23.2238 22.1077 23.7179 21.3575 24.3625C20.6074 25.0071 20.1308 25.4351 19.9278 25.6465C19.6937 25.8971 19.8879 26.2647 20.2308 26.2647H23.1663Z" fill="#9C9C9C"/>
</svg>
