<svg width="32" height="32" viewBox="0 0 32 32" fill="none" xmlns="http://www.w3.org/2000/svg">
<path d="M26.5833 11.5734C26.5686 11.5307 26.5566 11.4894 26.5393 11.448C26.4761 11.3033 26.3876 11.171 26.278 11.0574L18.278 3.05735C18.1643 2.94773 18.032 2.85924 17.8873 2.79602C17.8473 2.77735 17.8047 2.76669 17.762 2.75202C17.6504 2.71406 17.5343 2.69119 17.4167 2.68402C17.3873 2.68135 17.362 2.66669 17.334 2.66669H8.00065C6.52998 2.66669 5.33398 3.86269 5.33398 5.33335V26.6667C5.33398 28.1374 6.52998 29.3334 8.00065 29.3334H24.0007C25.4713 29.3334 26.6673 28.1374 26.6673 26.6667V12C26.6673 11.972 26.6526 11.9467 26.65 11.9174C26.6431 11.8002 26.6207 11.6845 26.5833 11.5734ZM22.1153 10.6667H18.6673V7.21869L22.1153 10.6667ZM8.00065 26.6667V5.33335H16.0007V12C16.0007 12.3536 16.1411 12.6928 16.3912 12.9428C16.6412 13.1929 16.9804 13.3334 17.334 13.3334H24.0007L24.0033 26.6667H8.00065Z" fill="#0D4494"/>
</svg>
