<svg width="18" height="18" viewBox="0 0 18 18" fill="none" xmlns="http://www.w3.org/2000/svg">
<mask id="path-2-inside-1" fill="white">
<path d="M1.25188 9.86127C0.913653 9.33033 0.913654 8.66967 1.25188 8.13873C2.30918 6.47904 5.00227 3 9 3C12.9977 3 15.6908 6.47904 16.7481 8.13873C17.0863 8.66967 17.0863 9.33033 16.7481 9.86127C15.6908 11.521 12.9977 15 9 15C5.00227 15 2.30918 11.521 1.25188 9.86127Z"/>
</mask>
<path d="M1.25188 9.86127C0.913653 9.33033 0.913654 8.66967 1.25188 8.13873C2.30918 6.47904 5.00227 3 9 3C12.9977 3 15.6908 6.47904 16.7481 8.13873C17.0863 8.66967 17.0863 9.33033 16.7481 9.86127C15.6908 11.521 12.9977 15 9 15C5.00227 15 2.30918 11.521 1.25188 9.86127Z" stroke="white" stroke-width="4" stroke-linecap="round" stroke-linejoin="round" mask="url(#path-2-inside-1)"/>
<mask id="path-3-inside-2" fill="white">
<path d="M9 11.25C10.2426 11.25 11.25 10.2426 11.25 9C11.25 7.75736 10.2426 6.75 9 6.75C7.75736 6.75 6.75 7.75736 6.75 9C6.75 10.2426 7.75736 11.25 9 11.25Z"/>
</mask>
<path d="M9 11.25C10.2426 11.25 11.25 10.2426 11.25 9C11.25 7.75736 10.2426 6.75 9 6.75C7.75736 6.75 6.75 7.75736 6.75 9C6.75 10.2426 7.75736 11.25 9 11.25Z" stroke="white" stroke-width="4" stroke-linecap="round" stroke-linejoin="round" mask="url(#path-3-inside-2)"/>
</svg>
