<svg width="145" height="216" viewBox="0 0 145 216" fill="none" xmlns="http://www.w3.org/2000/svg">
<path opacity="0.2" d="M144.766 177.768V216H0.478516C2.04102 201.547 6.72852 187.875 14.541 174.984C22.3535 161.996 37.7832 144.809 60.8301 123.422C79.3848 106.137 90.7617 94.418 94.9609 88.2656C100.625 79.7695 103.457 71.3711 103.457 63.0703C103.457 53.8906 100.967 46.8594 95.9863 41.9766C91.1035 36.9961 84.3164 34.5059 75.625 34.5059C67.0312 34.5059 60.1953 37.0938 55.1172 42.2695C50.0391 47.4453 47.1094 56.0391 46.3281 68.0508L5.3125 63.9492C7.75391 41.293 15.4199 25.0332 28.3105 15.1699C41.2012 5.30664 57.3145 0.375 76.6504 0.375C97.8418 0.375 114.492 6.08789 126.602 17.5137C138.711 28.9395 144.766 43.1484 144.766 60.1406C144.766 69.8086 143.008 79.0371 139.492 87.8262C136.074 96.5176 130.605 105.648 123.086 115.219C118.105 121.566 109.121 130.697 96.1328 142.611C83.1445 154.525 74.8926 162.436 71.377 166.342C67.959 170.248 65.1758 174.057 63.0273 177.768H144.766Z" fill="#381A18"/>
</svg>
