<svg width="143" height="220" viewBox="0 0 143 220" fill="none" xmlns="http://www.w3.org/2000/svg">
<path opacity="0.1" d="M0.287109 158.827L40.1309 153.993C41.4004 164.149 44.8184 171.913 50.3848 177.284C55.9512 182.655 62.6895 185.341 70.5996 185.341C79.0957 185.341 86.2246 182.118 91.9863 175.673C97.8457 169.228 100.775 160.536 100.775 149.599C100.775 139.247 97.9922 131.044 92.4258 124.989C86.8594 118.935 80.0723 115.907 72.0645 115.907C66.791 115.907 60.4922 116.933 53.168 118.983L57.709 85.4385C68.8418 85.7314 77.3379 83.3389 83.1973 78.2607C89.0566 73.085 91.9863 66.249 91.9863 57.7529C91.9863 50.5264 89.8379 44.7646 85.541 40.4678C81.2441 36.1709 75.5312 34.0225 68.4023 34.0225C61.3711 34.0225 55.3652 36.4639 50.3848 41.3467C45.4043 46.2295 42.377 53.3584 41.3027 62.7334L3.36328 56.2881C6 43.2998 9.95508 32.9482 15.2285 25.2334C20.5996 17.4209 28.0215 11.3174 37.4941 6.92285C47.0645 2.43066 57.7578 0.18457 69.5742 0.18457C89.7891 0.18457 106 6.62988 118.207 19.5205C128.266 30.0674 133.295 41.9814 133.295 55.2627C133.295 74.1104 122.992 89.1494 102.387 100.38C114.691 103.017 124.506 108.925 131.83 118.104C139.252 127.284 142.963 138.368 142.963 151.356C142.963 170.204 136.078 186.269 122.309 199.55C108.539 212.831 91.4004 219.472 70.8926 219.472C51.459 219.472 35.3457 213.905 22.5527 202.772C9.75977 191.542 2.33789 176.894 0.287109 158.827Z" fill="black"/>
</svg>
