<svg width="14" height="19" viewBox="0 0 14 19" fill="none" xmlns="http://www.w3.org/2000/svg">
<path fill-rule="evenodd" clip-rule="evenodd" d="M13.9707 7.15527C13.9707 10.5676 10.0155 15.8392 8.4705 17.7722C8.17293 18.1445 7.96476 18.393 7.89147 18.4805L7.8707 18.5053L7.4707 18.9053L7.0707 18.4553C7.02705 18.4116 6.81267 18.1652 6.48852 17.7661C4.95617 15.8796 0.970703 10.5807 0.970703 7.15527C0.970703 3.55527 3.8707 0.655273 7.4707 0.655273C11.0707 0.655273 13.9707 3.55527 13.9707 7.15527ZM9.75954 13.4523C8.92026 14.7341 8.06943 15.8602 7.48059 16.6067C7.39261 16.4967 7.29686 16.3758 7.19407 16.2442C6.62881 15.5208 5.89963 14.5392 5.18083 13.4445C4.4591 12.3453 3.7659 11.1593 3.25785 10.0239C2.73809 8.8623 2.4707 7.88106 2.4707 7.15527C2.4707 4.3837 4.69913 2.15527 7.4707 2.15527C10.2423 2.15527 12.4707 4.3837 12.4707 7.15527C12.4707 7.88108 12.2033 8.86234 11.6834 10.025C11.1752 11.1614 10.4818 12.3493 9.75954 13.4523ZM4.9707 7.15527C4.9707 8.55527 6.0707 9.65527 7.4707 9.65527C8.8707 9.65527 9.9707 8.55527 9.9707 7.15527C9.9707 5.75527 8.8707 4.65527 7.4707 4.65527C6.0707 4.65527 4.9707 5.75527 4.9707 7.15527ZM5.9707 7.15527C5.9707 6.30527 6.6207 5.65527 7.4707 5.65527C8.3207 5.65527 8.9707 6.30527 8.9707 7.15527C8.9707 8.00527 8.3207 8.65527 7.4707 8.65527C6.6207 8.65527 5.9707 8.00527 5.9707 7.15527Z" fill="#28009F"/>
</svg>
