<svg width="13" height="13" viewBox="0 0 13 13" fill="none" xmlns="http://www.w3.org/2000/svg">
<path fill-rule="evenodd" clip-rule="evenodd" d="M5.99951 12.5C5.99951 12.7761 6.22337 13 6.49951 13C6.77565 13 6.99951 12.7761 6.99951 12.5V7H12.4995C12.7757 7 12.9995 6.77614 12.9995 6.5C12.9995 6.22386 12.7757 6 12.4995 6H6.99951V0.5C6.99951 0.223858 6.77565 0 6.49951 0C6.22337 0 5.99951 0.223858 5.99951 0.5V6H0.499512C0.223369 6 -0.000488281 6.22386 -0.000488281 6.5C-0.000488281 6.77614 0.22337 7 0.499512 7H5.99951V12.5Z" fill="#381A18"/>
</svg>
