<svg width="24" height="25" viewBox="0 0 24 25" fill="none" xmlns="http://www.w3.org/2000/svg">
<path fill-rule="evenodd" clip-rule="evenodd" d="M15.6838 0.00292969H8.31615C1.59209 0.00292969 0 1.59503 0 8.31909V15.6868C0 22.4108 1.59209 24.0029 8.31615 24.0029H15.6838C22.4079 24.0029 24 22.4108 24 15.6868V8.31909C24 1.59503 22.3909 0.00292969 15.6838 0.00292969ZM19.3761 17.1264H17.6316C16.9711 17.1264 16.7678 16.6014 15.5822 15.3988C14.549 14.3995 14.0917 14.264 13.8377 14.264C13.482 14.264 13.3804 14.3657 13.3804 14.8568V16.432C13.3804 16.8554 13.2449 17.1095 12.127 17.1095C10.2809 17.1095 8.23147 15.9916 6.79181 13.9084C4.62385 10.8597 4.03105 8.57315 4.03105 8.09891C4.03105 7.84485 4.13267 7.60773 4.62385 7.60773H6.36838C6.80874 7.60773 6.97812 7.81097 7.14749 8.28522C8.01128 10.775 9.45094 12.9599 10.0437 12.9599C10.2639 12.9599 10.3656 12.8583 10.3656 12.2993V9.72488C10.2978 8.53927 9.67113 8.43765 9.67113 8.01422C9.67113 7.81097 9.8405 7.60773 10.1115 7.60773H12.8553C13.2279 7.60773 13.3634 7.81097 13.3634 8.25134V11.7235C13.3634 12.0961 13.5328 12.2316 13.6344 12.2316C13.8546 12.2316 14.0409 12.0961 14.4474 11.6896C15.7008 10.2838 16.5984 8.11584 16.5984 8.11584C16.717 7.86179 16.9202 7.62467 17.3606 7.62467H19.1051C19.6302 7.62467 19.7487 7.89566 19.6302 8.26828C19.41 9.28451 17.2759 12.2993 17.2759 12.2993C17.0896 12.6042 17.0219 12.7397 17.2759 13.0784C17.4622 13.3325 18.072 13.8576 18.4785 14.3318C19.2237 15.1787 19.7996 15.89 19.952 16.3812C20.1214 16.8724 19.8673 17.1264 19.3761 17.1264Z" fill="#0D4494"/>
</svg>
